<svg width="659" height="30" viewBox="0 0 659 30" fill="none" xmlns="http://www.w3.org/2000/svg">
<path d="M395.604 25.7017V15.7896H398.946L399.428 11.9097H395.604V9.4458C395.604 8.87939 395.722 8.42155 395.958 8.07227C396.194 7.72298 396.709 7.54834 397.502 7.54834H399.541V4.09326C399.107 4.0555 398.644 4.02246 398.153 3.99414C397.662 3.96582 397.172 3.95166 396.681 3.95166C396.662 3.95166 396.643 3.95166 396.624 3.95166C396.605 3.95166 396.586 3.95166 396.567 3.95166C395.095 3.95166 393.896 4.39062 392.971 5.26855C392.046 6.14648 391.583 7.41618 391.583 9.07764V11.9097H388.27V15.7896H391.583V25.7017H395.604Z" fill="url(#paint0_linear_2388_7211)"/>
<rect x="433.406" y="12.561" width="4.53125" height="4.53125" fill="#CCCBCB"/>
<path d="M486.669 9.98389C486.669 10.0972 486.669 10.2057 486.669 10.3096C486.669 10.4134 486.669 10.522 486.669 10.6353C486.669 12.2401 486.367 13.8638 485.763 15.5063C485.159 17.1489 484.271 18.6357 483.101 19.9668C481.93 21.2979 480.486 22.3787 478.768 23.2095C477.049 24.0591 475.067 24.4839 472.82 24.4839C471.442 24.4839 470.12 24.2904 468.855 23.9033C467.59 23.5163 466.42 22.9735 465.344 22.2749C465.551 22.3127 465.75 22.3315 465.938 22.3315C466.127 22.3315 466.326 22.3315 466.533 22.3315C466.533 22.3315 466.543 22.3315 466.562 22.3315C467.694 22.3315 468.775 22.1475 469.804 21.7793C470.833 21.4111 471.763 20.8966 472.594 20.2358L472.565 20.2642C471.508 20.2453 470.569 19.9243 469.748 19.3013C468.926 18.6782 468.355 17.8853 468.034 16.9224V16.894C468.166 16.9129 468.313 16.9318 468.473 16.9507C468.634 16.9696 468.789 16.979 468.94 16.979C469.167 16.979 469.384 16.9601 469.592 16.9224C469.799 16.8846 470.007 16.8468 470.215 16.8091C469.101 16.5636 468.171 15.9972 467.425 15.1099C466.68 14.2225 466.307 13.1935 466.307 12.0229V11.9663C466.646 12.1362 467 12.2778 467.369 12.3911C467.737 12.5044 468.119 12.5705 468.516 12.5894C467.855 12.1362 467.326 11.5557 466.93 10.8477C466.533 10.1396 466.335 9.37028 466.335 8.53955C466.335 8.08643 466.396 7.65218 466.519 7.23682C466.642 6.82145 466.807 6.43441 467.015 6.07568C467.619 6.81201 468.289 7.48226 469.025 8.08643C469.762 8.69059 470.555 9.2098 471.404 9.64404C472.254 10.0783 473.151 10.4276 474.095 10.6919C475.039 10.9562 476.011 11.1167 477.012 11.1733H477.04C477.002 10.9845 476.974 10.7957 476.955 10.6069C476.936 10.4181 476.927 10.2293 476.927 10.0405C476.927 8.70003 477.403 7.55306 478.357 6.59961C479.31 5.64616 480.457 5.16943 481.798 5.16943C482.496 5.16943 483.153 5.31104 483.766 5.59424C484.38 5.87744 484.904 6.25504 485.338 6.72705C485.923 6.61377 486.475 6.45329 486.995 6.24561C487.514 6.03792 488.009 5.79248 488.481 5.50928L488.425 5.5376C488.236 6.12288 487.962 6.64209 487.604 7.09521C487.245 7.54834 486.82 7.92594 486.329 8.22803H486.301C486.811 8.17139 487.306 8.07699 487.788 7.94482C488.269 7.81266 488.727 7.64274 489.161 7.43506L489.104 7.46338C488.765 7.95426 488.392 8.40739 487.986 8.82275C487.58 9.23812 487.15 9.61572 486.697 9.95557L486.669 9.98389Z" fill="url(#paint1_linear_2388_7211)"/>
<rect x="516.938" y="12.561" width="4.53125" height="4.53125" fill="#CCCBCB"/>
<path d="M552.613 11.7397C552.613 11.2866 552.651 10.8382 552.727 10.3945C552.802 9.95085 552.925 9.52132 553.095 9.10596C553.265 8.67171 553.463 8.27523 553.689 7.9165C553.916 7.55778 554.171 7.22738 554.454 6.92529C554.737 6.62321 555.039 6.33529 555.36 6.06152C555.681 5.78776 556.021 5.54704 556.38 5.33936L556.437 5.31104C556.776 5.10335 557.145 4.91455 557.541 4.74463C557.938 4.57471 558.353 4.43311 558.787 4.31982L558.844 4.2915C559.24 4.17822 559.66 4.09326 560.104 4.03662C560.548 3.97998 561.006 3.95166 561.478 3.95166C562.176 3.95166 562.846 4.02246 563.488 4.16406C564.13 4.30566 564.744 4.52751 565.329 4.82959C565.933 5.11279 566.476 5.4668 566.958 5.8916C567.439 6.31641 567.859 6.79313 568.218 7.32178V7.3501C568.595 7.89762 568.874 8.48763 569.053 9.12012C569.233 9.7526 569.322 10.4181 569.322 11.1167C569.322 11.5321 569.303 11.9427 569.266 12.3486C569.228 12.7546 569.171 13.1558 569.096 13.5522C569.001 13.9865 568.888 14.4019 568.756 14.7983C568.624 15.1948 568.463 15.5724 568.274 15.9312L568.303 15.8745C568.133 16.2521 567.935 16.6014 567.708 16.9224C567.481 17.2433 567.245 17.5454 567 17.8286C566.736 18.1118 566.448 18.3667 566.136 18.5933C565.825 18.8198 565.49 19.0086 565.131 19.1597H565.103C564.744 19.3296 564.361 19.457 563.956 19.542C563.55 19.627 563.13 19.6694 562.695 19.6694C562.676 19.6694 562.662 19.6694 562.653 19.6694C562.643 19.6694 562.639 19.6694 562.639 19.6694C562.337 19.6694 562.039 19.6364 561.747 19.5703C561.454 19.5042 561.166 19.3957 560.883 19.2446C560.581 19.1125 560.326 18.952 560.118 18.7632C559.91 18.5744 559.741 18.3573 559.608 18.1118C559.571 18.2817 559.519 18.4894 559.453 18.7349C559.387 18.9803 559.316 19.2635 559.24 19.5845C559.165 19.9054 559.103 20.1698 559.056 20.3774C559.009 20.5851 558.966 20.7362 558.929 20.8306C558.91 20.925 558.877 21.0477 558.83 21.1987C558.782 21.3498 558.73 21.5291 558.674 21.7368C558.617 21.9256 558.561 22.1003 558.504 22.2607C558.447 22.4212 558.381 22.577 558.306 22.728L558.334 22.6714L557.909 23.4927C557.815 23.6815 557.716 23.8608 557.612 24.0308C557.508 24.2007 557.399 24.3706 557.286 24.5405L557.314 24.5122C557.201 24.6632 557.078 24.8332 556.946 25.022C556.814 25.2108 556.663 25.4185 556.493 25.645L556.323 25.7017L556.21 25.5601C556.134 24.8804 556.083 24.3376 556.054 23.9316C556.026 23.5257 556.012 23.2472 556.012 23.0962C556.012 22.6997 556.035 22.2796 556.083 21.8359C556.13 21.3923 556.201 20.9155 556.295 20.4058C556.389 19.9149 556.507 19.3532 556.649 18.7207C556.791 18.0882 556.965 17.4038 557.173 16.6675C557.362 15.9123 557.513 15.3128 557.626 14.8691C557.739 14.4255 557.815 14.1375 557.853 14.0054C557.701 13.7222 557.593 13.3965 557.527 13.0283C557.461 12.6602 557.428 12.2495 557.428 11.7964C557.428 11.4377 557.484 11.0884 557.598 10.7485C557.711 10.4087 557.881 10.0783 558.107 9.75732C558.334 9.43636 558.589 9.19564 558.872 9.03516C559.155 8.87467 559.476 8.79443 559.835 8.79443C560.099 8.79443 560.335 8.84163 560.543 8.93604C560.751 9.03044 560.93 9.1626 561.081 9.33252C561.213 9.50244 561.317 9.70068 561.393 9.92725C561.468 10.1538 561.506 10.3993 561.506 10.6636C561.506 10.9468 561.459 11.3008 561.364 11.7256C561.27 12.1504 561.128 12.6271 560.939 13.1558C560.751 13.7033 560.609 14.18 560.515 14.5859C560.42 14.9919 560.373 15.3364 560.373 15.6196C560.373 15.884 560.42 16.1294 560.515 16.356C560.609 16.5825 560.751 16.7902 560.939 16.979C561.128 17.1489 561.341 17.2811 561.577 17.3755C561.813 17.4699 562.063 17.5171 562.327 17.5171C562.346 17.5171 562.355 17.5171 562.355 17.5171C562.355 17.5171 562.365 17.5171 562.384 17.5171C562.61 17.5171 562.837 17.4888 563.063 17.4321C563.29 17.3755 563.507 17.2905 563.715 17.1772C563.923 17.0828 564.111 16.9601 564.281 16.8091C564.451 16.658 564.602 16.4881 564.734 16.2993C565.018 15.9217 565.263 15.5111 565.471 15.0674C565.678 14.6237 565.839 14.1564 565.952 13.6655V13.6089C566.009 13.3634 566.061 13.118 566.108 12.8726C566.155 12.6271 566.198 12.3911 566.235 12.1646C566.254 11.938 566.273 11.7161 566.292 11.499C566.311 11.2819 566.32 11.0695 566.32 10.8618C566.32 10.1066 566.198 9.43636 565.952 8.85107C565.707 8.26579 565.348 7.76546 564.876 7.3501C564.404 6.91585 563.856 6.59489 563.233 6.38721C562.61 6.17953 561.912 6.07568 561.138 6.07568C560.269 6.07568 559.472 6.21729 558.745 6.50049C558.018 6.78369 557.362 7.2085 556.776 7.7749C556.191 8.34131 555.752 8.98324 555.459 9.70068C555.167 10.4181 555.021 11.2111 555.021 12.0796C555.021 12.2684 555.035 12.4525 555.063 12.6318C555.091 12.8112 555.134 12.9953 555.19 13.1841C555.247 13.354 555.304 13.5098 555.36 13.6514C555.417 13.793 555.483 13.9204 555.559 14.0337C555.615 14.1281 555.672 14.2272 555.729 14.3311C555.785 14.4349 555.842 14.534 555.898 14.6284C555.955 14.7228 555.998 14.8031 556.026 14.8691C556.054 14.9352 556.068 14.9871 556.068 15.0249C556.068 15.1382 556.054 15.2751 556.026 15.4355C555.998 15.596 555.946 15.7801 555.87 15.9878C555.813 16.1766 555.743 16.3182 555.658 16.4126C555.573 16.507 555.483 16.5542 555.389 16.5542C555.389 16.5542 555.37 16.5542 555.332 16.5542C555.294 16.5542 555.238 16.5448 555.162 16.5259C554.936 16.4504 554.723 16.3512 554.525 16.2285C554.327 16.1058 554.143 15.9595 553.973 15.7896C553.822 15.6196 553.675 15.4308 553.534 15.2231C553.392 15.0155 553.284 14.7983 553.208 14.5718H553.18C553.104 14.3641 553.029 14.147 552.953 13.9204C552.878 13.6938 552.821 13.4578 552.783 13.2124L552.755 13.1558C552.717 12.9481 552.684 12.7262 552.656 12.4902C552.627 12.2542 552.613 12.0229 552.613 11.7964C552.613 11.7775 552.613 11.7681 552.613 11.7681C552.613 11.7681 552.613 11.7586 552.613 11.7397Z" fill="url(#paint2_linear_2388_7211)"/>
<rect x="600.469" y="12.561" width="4.53125" height="4.53125" fill="#CCCBCB"/>
<path d="M644.5 9.24756C643.726 9.24756 642.999 9.38916 642.319 9.67236C641.64 9.97445 641.05 10.3757 640.549 10.876C640.049 11.3763 639.648 11.9663 639.346 12.646C639.062 13.3257 638.921 14.0526 638.921 14.8267C638.921 15.6007 639.062 16.3276 639.346 17.0073C639.648 17.687 640.049 18.277 640.549 18.7773C641.05 19.2777 641.64 19.6789 642.319 19.981C642.999 20.2642 643.726 20.4058 644.5 20.4058C645.274 20.4058 646.001 20.2642 646.681 19.981C647.36 19.6789 647.95 19.2777 648.451 18.7773C648.951 18.277 649.352 17.687 649.654 17.0073C649.938 16.3276 650.079 15.6007 650.079 14.8267C650.079 14.0526 649.938 13.3257 649.654 12.646C649.352 11.9663 648.951 11.3763 648.451 10.876C647.95 10.3757 647.36 9.97445 646.681 9.67236C646.001 9.38916 645.274 9.24756 644.5 9.24756ZM644.5 18.4517C643.499 18.4517 642.645 18.0977 641.937 17.3896C641.229 16.6816 640.875 15.8273 640.875 14.8267C640.875 13.826 641.229 12.9717 641.937 12.2637C642.645 11.5557 643.499 11.2017 644.5 11.2017C645.501 11.2017 646.355 11.5557 647.063 12.2637C647.771 12.9717 648.125 13.826 648.125 14.8267C648.125 15.8273 647.771 16.6816 647.063 17.3896C646.355 18.0977 645.501 18.4517 644.5 18.4517ZM651.608 9.021C651.608 9.3986 651.481 9.71012 651.226 9.95557C650.971 10.201 650.664 10.3237 650.306 10.3237C649.947 10.3237 649.64 10.201 649.385 9.95557C649.13 9.71012 649.003 9.3986 649.003 9.021C649.003 8.66227 649.13 8.36019 649.385 8.11475C649.64 7.8693 649.947 7.74658 650.306 7.74658C650.664 7.74658 650.971 7.8693 651.226 8.11475C651.481 8.36019 651.608 8.66227 651.608 9.021ZM654.809 7.71826C654.525 6.98193 654.11 6.34001 653.562 5.79248C653.015 5.24496 652.382 4.82959 651.665 4.54639L651.637 4.51807C651.24 4.36703 650.82 4.24902 650.376 4.16406C649.933 4.0791 649.475 4.03662 649.003 4.03662H648.975C648.408 3.99886 647.889 3.97526 647.417 3.96582C646.945 3.95638 645.973 3.95166 644.5 3.95166C643.027 3.95166 642.055 3.95638 641.583 3.96582C641.111 3.97526 640.592 3.99886 640.025 4.03662C639.553 4.03662 639.091 4.08382 638.638 4.17822C638.185 4.27262 637.75 4.39535 637.335 4.54639L637.392 4.51807C636.655 4.82015 636.013 5.24496 635.466 5.79248C634.918 6.34001 634.503 6.96305 634.22 7.66162L634.191 7.71826C634.04 8.09587 633.922 8.51123 633.837 8.96436C633.752 9.41748 633.701 9.88005 633.682 10.3521C633.663 10.9373 633.649 11.4613 633.639 11.9238C633.63 12.3864 633.625 13.354 633.625 14.8267C633.625 16.2993 633.63 17.2716 633.639 17.7437C633.649 18.2157 633.663 18.7443 633.682 19.3296C633.701 19.7827 633.752 20.2264 633.837 20.6606C633.922 21.0949 634.04 21.5291 634.191 21.9634C634.493 22.6997 634.918 23.3416 635.466 23.8892C636.013 24.4367 636.636 24.8521 637.335 25.1353H637.392C637.769 25.3052 638.18 25.4373 638.624 25.5317C639.067 25.6261 639.525 25.6733 639.997 25.6733H640.025C640.611 25.7111 641.135 25.7347 641.597 25.7441C642.06 25.7536 643.027 25.7583 644.5 25.7583C645.973 25.7583 646.945 25.7536 647.417 25.7441C647.889 25.7347 648.418 25.7111 649.003 25.6733C649.475 25.6733 649.938 25.6261 650.391 25.5317C650.844 25.4373 651.278 25.3146 651.693 25.1636L651.637 25.1919C652.373 24.8898 653.015 24.465 653.562 23.9175C654.11 23.37 654.525 22.7469 654.809 22.0483V21.9917C654.979 21.5763 655.106 21.1468 655.191 20.7031C655.276 20.2594 655.318 19.811 655.318 19.3579C655.337 18.7726 655.351 18.2487 655.361 17.7861C655.37 17.3236 655.375 16.356 655.375 14.8833C655.375 13.3918 655.375 12.4147 655.375 11.9521C655.375 11.4896 655.356 10.9657 655.318 10.3804C655.318 9.90837 655.271 9.44108 655.177 8.97852C655.082 8.51595 654.95 8.07699 654.78 7.66162L654.809 7.71826ZM653.336 19.2163C653.336 19.5939 653.303 19.9574 653.237 20.3066C653.171 20.6559 653.072 20.991 652.939 21.312L652.968 21.2554C652.779 21.7463 652.505 22.1663 652.146 22.5156C651.788 22.8649 651.382 23.134 650.929 23.3228H650.9C650.598 23.4549 650.277 23.5493 649.938 23.606C649.598 23.6626 649.248 23.7004 648.89 23.7192C648.304 23.7381 647.79 23.7523 647.346 23.7617C646.903 23.7712 645.944 23.7759 644.472 23.7759C642.999 23.7759 642.041 23.7712 641.597 23.7617C641.153 23.7523 640.639 23.7381 640.054 23.7192C639.676 23.7004 639.317 23.6579 638.978 23.5918C638.638 23.5257 638.307 23.436 637.986 23.3228H638.015C637.543 23.1528 637.127 22.8885 636.769 22.5298C636.41 22.1711 636.136 21.7557 635.947 21.2837V21.2554C635.834 20.9722 635.744 20.6606 635.678 20.3208C635.612 19.981 635.579 19.6222 635.579 19.2446C635.541 18.6782 635.522 18.1685 635.522 17.7153C635.522 17.2622 635.522 16.2993 635.522 14.8267C635.522 13.354 635.522 12.3958 635.522 11.9521C635.522 11.5085 635.541 10.994 635.579 10.4087C635.579 10.05 635.612 9.69596 635.678 9.34668C635.744 8.9974 635.843 8.66227 635.976 8.34131L635.947 8.36963C636.136 7.89762 636.41 7.48226 636.769 7.12354C637.127 6.76481 637.543 6.49105 638.015 6.30225C638.317 6.18896 638.638 6.09928 638.978 6.0332C639.317 5.96712 639.676 5.93408 640.054 5.93408C640.62 5.9152 641.13 5.90104 641.583 5.8916C642.036 5.88216 642.999 5.87744 644.472 5.87744C645.944 5.87744 646.903 5.87744 647.346 5.87744C647.79 5.87744 648.304 5.89632 648.89 5.93408C649.248 5.93408 649.598 5.96712 649.938 6.0332C650.277 6.09928 650.608 6.1984 650.929 6.33057L650.9 6.30225C651.372 6.49105 651.788 6.76481 652.146 7.12354C652.505 7.48226 652.779 7.89762 652.968 8.36963C653.081 8.67171 653.171 8.99268 653.237 9.33252C653.303 9.67236 653.336 10.0216 653.336 10.3804V10.4087C653.355 10.9751 653.369 11.4849 653.378 11.938C653.388 12.3911 653.393 13.354 653.393 14.8267C653.393 16.2993 653.393 17.2575 653.393 17.7012C653.393 18.1449 653.383 18.6499 653.364 19.2163H653.336Z" fill="url(#paint3_linear_2388_7211)"/>
<defs>
<linearGradient id="paint0_linear_2388_7211" x1="393.905" y1="25.7017" x2="393.905" y2="3.95166" gradientUnits="userSpaceOnUse">
<stop stop-color="#DEC42F"/>
<stop offset="1" stop-color="#D97220"/>
</linearGradient>
<linearGradient id="paint1_linear_2388_7211" x1="477.252" y1="24.4839" x2="477.252" y2="5.16943" gradientUnits="userSpaceOnUse">
<stop stop-color="#DEC42F"/>
<stop offset="1" stop-color="#D97220"/>
</linearGradient>
<linearGradient id="paint2_linear_2388_7211" x1="560.968" y1="25.7017" x2="560.968" y2="3.95166" gradientUnits="userSpaceOnUse">
<stop stop-color="#DEC42F"/>
<stop offset="1" stop-color="#D97220"/>
</linearGradient>
<linearGradient id="paint3_linear_2388_7211" x1="644.5" y1="25.7583" x2="644.5" y2="3.95166" gradientUnits="userSpaceOnUse">
<stop stop-color="#DEC42F"/>
<stop offset="1" stop-color="#D97220"/>
</linearGradient>
</defs>
</svg>
