<svg width="30" height="275" viewBox="0 0 30 275" fill="none" xmlns="http://www.w3.org/2000/svg">
<path d="M17.6982 24.875V14.9629H21.04L21.5215 11.083H17.6982V8.61914C17.6982 8.05273 17.8162 7.59489 18.0522 7.24561C18.2882 6.89632 18.8027 6.72168 19.5957 6.72168H21.6348V3.2666C21.2005 3.22884 20.738 3.1958 20.2471 3.16748C19.7562 3.13916 19.2653 3.125 18.7744 3.125C18.7555 3.125 18.7367 3.125 18.7178 3.125C18.6989 3.125 18.68 3.125 18.6611 3.125C17.1885 3.125 15.9896 3.56396 15.0645 4.44189C14.1393 5.31982 13.6768 6.58952 13.6768 8.25098V11.083H10.3633V14.9629H13.6768V24.875H17.6982Z" fill="url(#paint0_linear_1992_26574)"/>
<rect x="12.7344" y="53.5" width="4.53125" height="4.53125" fill="url(#paint1_linear_1992_26574)"/>
<path d="M25.2314 90.6885C25.2314 90.8018 25.2314 90.9103 25.2314 91.0142C25.2314 91.118 25.2314 91.2266 25.2314 91.3398C25.2314 92.9447 24.9294 94.5684 24.3252 96.2109C23.721 97.8535 22.8337 99.3403 21.6631 100.671C20.4925 102.002 19.0482 103.083 17.3301 103.914C15.612 104.764 13.6296 105.188 11.3828 105.188C10.0046 105.188 8.68294 104.995 7.41797 104.608C6.15299 104.221 4.98242 103.678 3.90625 102.979C4.11393 103.017 4.31217 103.036 4.50098 103.036C4.68978 103.036 4.88802 103.036 5.0957 103.036C5.0957 103.036 5.10514 103.036 5.12402 103.036C6.25684 103.036 7.33773 102.852 8.3667 102.484C9.39567 102.116 10.3255 101.601 11.1562 100.94L11.1279 100.969C10.0706 100.95 9.13135 100.629 8.31006 100.006C7.48877 99.3828 6.91764 98.5898 6.59668 97.627V97.5986C6.72884 97.6175 6.87516 97.6364 7.03564 97.6553C7.19613 97.6742 7.35189 97.6836 7.50293 97.6836C7.72949 97.6836 7.94661 97.6647 8.1543 97.627C8.36198 97.5892 8.56966 97.5514 8.77734 97.5137C7.66341 97.2682 6.73356 96.7018 5.98779 95.8145C5.24202 94.9271 4.86914 93.8981 4.86914 92.7275V92.6709C5.20898 92.8408 5.56299 92.9824 5.93115 93.0957C6.29932 93.209 6.68164 93.2751 7.07812 93.2939C6.41732 92.8408 5.88867 92.2603 5.49219 91.5522C5.0957 90.8442 4.89746 90.0749 4.89746 89.2441C4.89746 88.791 4.95882 88.3568 5.08154 87.9414C5.20426 87.526 5.36947 87.139 5.57715 86.7803C6.18132 87.5166 6.85156 88.1868 7.58789 88.791C8.32422 89.3952 9.11719 89.9144 9.9668 90.3486C10.8164 90.7829 11.7132 91.1322 12.6572 91.3965C13.6012 91.6608 14.5736 91.8213 15.5742 91.8779H15.6025C15.5648 91.6891 15.5365 91.5003 15.5176 91.3115C15.4987 91.1227 15.4893 90.9339 15.4893 90.7451C15.4893 89.4046 15.966 88.2577 16.9194 87.3042C17.8729 86.3507 19.0199 85.874 20.3604 85.874C21.0589 85.874 21.715 86.0156 22.3286 86.2988C22.9422 86.582 23.4661 86.9596 23.9004 87.4316C24.4857 87.3184 25.0379 87.1579 25.5571 86.9502C26.0763 86.7425 26.5719 86.4971 27.0439 86.2139L26.9873 86.2422C26.7985 86.8275 26.5247 87.3467 26.166 87.7998C25.8073 88.2529 25.3825 88.6305 24.8916 88.9326H24.8633C25.373 88.876 25.8687 88.7816 26.3501 88.6494C26.8315 88.5173 27.2894 88.3473 27.7236 88.1396L27.667 88.168C27.3271 88.6589 26.9543 89.112 26.5483 89.5273C26.1424 89.9427 25.7129 90.3203 25.2598 90.6602L25.2314 90.6885Z" fill="url(#paint2_linear_1992_26574)"/>
<rect x="12.7344" y="135.031" width="4.53125" height="4.53125" fill="url(#paint3_linear_1992_26574)"/>
<path d="M7.64453 173.976C7.64453 173.522 7.68229 173.074 7.75781 172.63C7.83333 172.187 7.95605 171.757 8.12598 171.342C8.2959 170.908 8.49414 170.511 8.7207 170.152C8.94727 169.794 9.20215 169.463 9.48535 169.161C9.76855 168.859 10.0706 168.571 10.3916 168.297C10.7126 168.024 11.0524 167.783 11.4111 167.575L11.4678 167.547C11.8076 167.339 12.1758 167.15 12.5723 166.98C12.9688 166.811 13.3841 166.669 13.8184 166.556L13.875 166.527C14.2715 166.414 14.6916 166.329 15.1353 166.272C15.5789 166.216 16.0368 166.188 16.5088 166.188C17.2074 166.188 17.8776 166.258 18.5195 166.4C19.1615 166.542 19.7751 166.763 20.3604 167.065C20.9645 167.349 21.5073 167.703 21.9888 168.127C22.4702 168.552 22.8903 169.029 23.249 169.558V169.586C23.6266 170.133 23.9051 170.723 24.0845 171.356C24.2638 171.988 24.3535 172.654 24.3535 173.353C24.3535 173.768 24.3346 174.179 24.2969 174.584C24.2591 174.99 24.2025 175.392 24.127 175.788C24.0326 176.222 23.9193 176.638 23.7871 177.034C23.6549 177.431 23.4945 177.808 23.3057 178.167L23.334 178.11C23.1641 178.488 22.9658 178.837 22.7393 179.158C22.5127 179.479 22.2767 179.781 22.0312 180.064C21.7669 180.348 21.479 180.603 21.1675 180.829C20.856 181.056 20.5208 181.244 20.1621 181.396H20.1338C19.7751 181.565 19.3927 181.693 18.9868 181.778C18.5809 181.863 18.1608 181.905 17.7266 181.905C17.7077 181.905 17.6935 181.905 17.6841 181.905C17.6746 181.905 17.6699 181.905 17.6699 181.905C17.3678 181.905 17.0705 181.872 16.7778 181.806C16.4852 181.74 16.1973 181.632 15.9141 181.48C15.612 181.348 15.3571 181.188 15.1494 180.999C14.9417 180.81 14.7718 180.593 14.6396 180.348C14.6019 180.518 14.55 180.725 14.4839 180.971C14.4178 181.216 14.347 181.499 14.2715 181.82C14.196 182.141 14.1346 182.406 14.0874 182.613C14.0402 182.821 13.9977 182.972 13.96 183.066C13.9411 183.161 13.908 183.284 13.8608 183.435C13.8136 183.586 13.7617 183.765 13.7051 183.973C13.6484 184.161 13.5918 184.336 13.5352 184.497C13.4785 184.657 13.4124 184.813 13.3369 184.964L13.3652 184.907L12.9404 185.729C12.846 185.917 12.7469 186.097 12.6431 186.267C12.5392 186.437 12.4307 186.606 12.3174 186.776L12.3457 186.748C12.2324 186.899 12.1097 187.069 11.9775 187.258C11.8454 187.447 11.6943 187.654 11.5244 187.881L11.3545 187.938L11.2412 187.796C11.1657 187.116 11.1138 186.573 11.0854 186.167C11.0571 185.762 11.043 185.483 11.043 185.332C11.043 184.936 11.0666 184.515 11.1138 184.072C11.161 183.628 11.2318 183.151 11.3262 182.642C11.4206 182.151 11.5386 181.589 11.6802 180.957C11.8218 180.324 11.9964 179.64 12.2041 178.903C12.3929 178.148 12.5439 177.549 12.6572 177.105C12.7705 176.661 12.846 176.373 12.8838 176.241C12.7327 175.958 12.6242 175.632 12.5581 175.264C12.492 174.896 12.459 174.485 12.459 174.032C12.459 173.674 12.5156 173.324 12.6289 172.984C12.7422 172.645 12.9121 172.314 13.1387 171.993C13.3652 171.672 13.6201 171.431 13.9033 171.271C14.1865 171.111 14.5075 171.03 14.8662 171.03C15.1305 171.03 15.3665 171.077 15.5742 171.172C15.7819 171.266 15.9613 171.398 16.1123 171.568C16.2445 171.738 16.3483 171.937 16.4238 172.163C16.4993 172.39 16.5371 172.635 16.5371 172.899C16.5371 173.183 16.4899 173.537 16.3955 173.961C16.3011 174.386 16.1595 174.863 15.9707 175.392C15.7819 175.939 15.6403 176.416 15.5459 176.822C15.4515 177.228 15.4043 177.572 15.4043 177.855C15.4043 178.12 15.4515 178.365 15.5459 178.592C15.6403 178.818 15.7819 179.026 15.9707 179.215C16.1595 179.385 16.3719 179.517 16.6079 179.611C16.8439 179.706 17.0941 179.753 17.3584 179.753C17.3773 179.753 17.3867 179.753 17.3867 179.753C17.3867 179.753 17.3962 179.753 17.415 179.753C17.6416 179.753 17.8682 179.725 18.0947 179.668C18.3213 179.611 18.5384 179.526 18.7461 179.413C18.9538 179.319 19.1426 179.196 19.3125 179.045C19.4824 178.894 19.6335 178.724 19.7656 178.535C20.0488 178.158 20.2943 177.747 20.502 177.303C20.7096 176.86 20.8701 176.392 20.9834 175.901V175.845C21.04 175.599 21.092 175.354 21.1392 175.108C21.1864 174.863 21.2288 174.627 21.2666 174.4C21.2855 174.174 21.3044 173.952 21.3232 173.735C21.3421 173.518 21.3516 173.305 21.3516 173.098C21.3516 172.342 21.2288 171.672 20.9834 171.087C20.738 170.502 20.3792 170.001 19.9072 169.586C19.4352 169.152 18.8877 168.831 18.2646 168.623C17.6416 168.415 16.943 168.312 16.1689 168.312C15.3005 168.312 14.5028 168.453 13.7759 168.736C13.049 169.02 12.3929 169.444 11.8076 170.011C11.2223 170.577 10.7834 171.219 10.4907 171.937C10.1981 172.654 10.0518 173.447 10.0518 174.315C10.0518 174.504 10.0659 174.688 10.0942 174.868C10.1226 175.047 10.165 175.231 10.2217 175.42C10.2783 175.59 10.335 175.746 10.3916 175.887C10.4482 176.029 10.5143 176.156 10.5898 176.27C10.6465 176.364 10.7031 176.463 10.7598 176.567C10.8164 176.671 10.873 176.77 10.9297 176.864C10.9863 176.959 11.0288 177.039 11.0571 177.105C11.0854 177.171 11.0996 177.223 11.0996 177.261C11.0996 177.374 11.0854 177.511 11.0571 177.671C11.0288 177.832 10.9769 178.016 10.9014 178.224C10.8447 178.412 10.7739 178.554 10.689 178.648C10.604 178.743 10.5143 178.79 10.4199 178.79C10.4199 178.79 10.401 178.79 10.3633 178.79C10.3255 178.79 10.2689 178.781 10.1934 178.762C9.9668 178.686 9.75439 178.587 9.55615 178.464C9.35791 178.342 9.17383 178.195 9.00391 178.025C8.85286 177.855 8.70654 177.667 8.56494 177.459C8.42334 177.251 8.31478 177.034 8.23926 176.808H8.21094C8.13542 176.6 8.0599 176.383 7.98438 176.156C7.90885 175.93 7.85221 175.694 7.81445 175.448L7.78613 175.392C7.74837 175.184 7.71533 174.962 7.68701 174.726C7.65869 174.49 7.64453 174.259 7.64453 174.032C7.64453 174.013 7.64453 174.004 7.64453 174.004C7.64453 174.004 7.64453 173.994 7.64453 173.976Z" fill="url(#paint4_linear_1992_26574)"/>
<rect x="12.7344" y="216.562" width="4.53125" height="4.53125" fill="url(#paint5_linear_1992_26574)"/>
<path d="M16 253.015C15.2259 253.015 14.499 253.156 13.8193 253.439C13.1396 253.742 12.5496 254.143 12.0493 254.643C11.549 255.143 11.1478 255.733 10.8457 256.413C10.5625 257.093 10.4209 257.82 10.4209 258.594C10.4209 259.368 10.5625 260.095 10.8457 260.774C11.1478 261.454 11.549 262.044 12.0493 262.544C12.5496 263.045 13.1396 263.446 13.8193 263.748C14.499 264.031 15.2259 264.173 16 264.173C16.7741 264.173 17.501 264.031 18.1807 263.748C18.8604 263.446 19.4504 263.045 19.9507 262.544C20.451 262.044 20.8522 261.454 21.1543 260.774C21.4375 260.095 21.5791 259.368 21.5791 258.594C21.5791 257.82 21.4375 257.093 21.1543 256.413C20.8522 255.733 20.451 255.143 19.9507 254.643C19.4504 254.143 18.8604 253.742 18.1807 253.439C17.501 253.156 16.7741 253.015 16 253.015ZM16 262.219C14.9993 262.219 14.145 261.865 13.437 261.157C12.729 260.449 12.375 259.594 12.375 258.594C12.375 257.593 12.729 256.739 13.437 256.031C14.145 255.323 14.9993 254.969 16 254.969C17.0007 254.969 17.855 255.323 18.563 256.031C19.271 256.739 19.625 257.593 19.625 258.594C19.625 259.594 19.271 260.449 18.563 261.157C17.855 261.865 17.0007 262.219 16 262.219ZM23.1084 252.788C23.1084 253.166 22.981 253.477 22.7261 253.723C22.4712 253.968 22.1644 254.091 21.8057 254.091C21.4469 254.091 21.1401 253.968 20.8853 253.723C20.6304 253.477 20.5029 253.166 20.5029 252.788C20.5029 252.429 20.6304 252.127 20.8853 251.882C21.1401 251.636 21.4469 251.514 21.8057 251.514C22.1644 251.514 22.4712 251.636 22.7261 251.882C22.981 252.127 23.1084 252.429 23.1084 252.788ZM26.3086 251.485C26.0254 250.749 25.61 250.107 25.0625 249.56C24.515 249.012 23.8825 248.597 23.165 248.313L23.1367 248.285C22.7402 248.134 22.3202 248.016 21.8765 247.931C21.4328 247.846 20.9749 247.804 20.5029 247.804H20.4746C19.9082 247.766 19.389 247.742 18.917 247.733C18.445 247.723 17.4727 247.719 16 247.719C14.5273 247.719 13.555 247.723 13.083 247.733C12.611 247.742 12.0918 247.766 11.5254 247.804C11.0534 247.804 10.5908 247.851 10.1377 247.945C9.68457 248.04 9.25033 248.162 8.83496 248.313L8.8916 248.285C8.15527 248.587 7.51335 249.012 6.96582 249.56C6.41829 250.107 6.00293 250.73 5.71973 251.429L5.69141 251.485C5.54036 251.863 5.42236 252.278 5.3374 252.731C5.25244 253.185 5.20052 253.647 5.18164 254.119C5.16276 254.704 5.1486 255.228 5.13916 255.691C5.12972 256.153 5.125 257.121 5.125 258.594C5.125 260.066 5.12972 261.039 5.13916 261.511C5.1486 261.983 5.16276 262.511 5.18164 263.097C5.20052 263.55 5.25244 263.993 5.3374 264.428C5.42236 264.862 5.54036 265.296 5.69141 265.73C5.99349 266.467 6.41829 267.109 6.96582 267.656C7.51335 268.204 8.13639 268.619 8.83496 268.902H8.8916C9.26921 269.072 9.67985 269.204 10.1235 269.299C10.5672 269.393 11.0251 269.44 11.4971 269.44H11.5254C12.1107 269.478 12.6346 269.502 13.0972 269.511C13.5597 269.521 14.5273 269.525 16 269.525C17.4727 269.525 18.445 269.521 18.917 269.511C19.389 269.502 19.9176 269.478 20.5029 269.44C20.9749 269.44 21.4375 269.393 21.8906 269.299C22.3438 269.204 22.778 269.082 23.1934 268.931L23.1367 268.959C23.873 268.657 24.515 268.232 25.0625 267.685C25.61 267.137 26.0254 266.514 26.3086 265.815V265.759C26.4785 265.343 26.606 264.914 26.6909 264.47C26.7759 264.027 26.8184 263.578 26.8184 263.125C26.8372 262.54 26.8514 262.016 26.8608 261.553C26.8703 261.091 26.875 260.123 26.875 258.65C26.875 257.159 26.875 256.182 26.875 255.719C26.875 255.257 26.8561 254.733 26.8184 254.147C26.8184 253.675 26.7712 253.208 26.6768 252.746C26.5824 252.283 26.4502 251.844 26.2803 251.429L26.3086 251.485ZM24.8359 262.983C24.8359 263.361 24.8029 263.724 24.7368 264.074C24.6707 264.423 24.5716 264.758 24.4395 265.079L24.4678 265.022C24.279 265.513 24.0052 265.933 23.6465 266.283C23.2878 266.632 22.8818 266.901 22.4287 267.09H22.4004C22.0983 267.222 21.7773 267.316 21.4375 267.373C21.0977 267.43 20.7484 267.467 20.3896 267.486C19.8044 267.505 19.2899 267.519 18.8462 267.529C18.4025 267.538 17.4443 267.543 15.9717 267.543C14.499 267.543 13.5409 267.538 13.0972 267.529C12.6535 267.519 12.139 267.505 11.5537 267.486C11.1761 267.467 10.8174 267.425 10.4775 267.359C10.1377 267.293 9.80729 267.203 9.48633 267.09H9.51465C9.04264 266.92 8.62728 266.656 8.26855 266.297C7.90983 265.938 7.63607 265.523 7.44727 265.051V265.022C7.33398 264.739 7.2443 264.428 7.17822 264.088C7.11214 263.748 7.0791 263.389 7.0791 263.012C7.04134 262.445 7.02246 261.936 7.02246 261.482C7.02246 261.029 7.02246 260.066 7.02246 258.594C7.02246 257.121 7.02246 256.163 7.02246 255.719C7.02246 255.276 7.04134 254.761 7.0791 254.176C7.0791 253.817 7.11214 253.463 7.17822 253.114C7.2443 252.764 7.34342 252.429 7.47559 252.108L7.44727 252.137C7.63607 251.665 7.90983 251.249 8.26855 250.891C8.62728 250.532 9.04264 250.258 9.51465 250.069C9.81673 249.956 10.1377 249.866 10.4775 249.8C10.8174 249.734 11.1761 249.701 11.5537 249.701C12.1201 249.682 12.6299 249.668 13.083 249.659C13.5361 249.649 14.499 249.645 15.9717 249.645C17.4443 249.645 18.4025 249.645 18.8462 249.645C19.2899 249.645 19.8044 249.663 20.3896 249.701C20.7484 249.701 21.0977 249.734 21.4375 249.8C21.7773 249.866 22.1077 249.965 22.4287 250.098L22.4004 250.069C22.8724 250.258 23.2878 250.532 23.6465 250.891C24.0052 251.249 24.279 251.665 24.4678 252.137C24.5811 252.439 24.6707 252.76 24.7368 253.1C24.8029 253.439 24.8359 253.789 24.8359 254.147V254.176C24.8548 254.742 24.869 255.252 24.8784 255.705C24.8879 256.158 24.8926 257.121 24.8926 258.594C24.8926 260.066 24.8926 261.025 24.8926 261.468C24.8926 261.912 24.8831 262.417 24.8643 262.983H24.8359Z" fill="url(#paint6_linear_1992_26574)"/>
<defs>
<linearGradient id="paint0_linear_1992_26574" x1="15.999" y1="24.875" x2="15.999" y2="3.125" gradientUnits="userSpaceOnUse">
<stop stop-color="#DEC42F"/>
<stop offset="1" stop-color="#D97220"/>
</linearGradient>
<linearGradient id="paint1_linear_1992_26574" x1="15" y1="53.5" x2="15" y2="58.0312" gradientUnits="userSpaceOnUse">
<stop stop-color="#DEC42F"/>
<stop offset="1" stop-color="#D97220"/>
</linearGradient>
<linearGradient id="paint2_linear_1992_26574" x1="15.8149" y1="105.188" x2="15.8149" y2="85.874" gradientUnits="userSpaceOnUse">
<stop stop-color="#DEC42F"/>
<stop offset="1" stop-color="#D97220"/>
</linearGradient>
<linearGradient id="paint3_linear_1992_26574" x1="15" y1="135.031" x2="15" y2="139.562" gradientUnits="userSpaceOnUse">
<stop stop-color="#DEC42F"/>
<stop offset="1" stop-color="#D97220"/>
</linearGradient>
<linearGradient id="paint4_linear_1992_26574" x1="15.999" y1="187.938" x2="15.999" y2="166.188" gradientUnits="userSpaceOnUse">
<stop stop-color="#DEC42F"/>
<stop offset="1" stop-color="#D97220"/>
</linearGradient>
<linearGradient id="paint5_linear_1992_26574" x1="15" y1="216.562" x2="15" y2="221.094" gradientUnits="userSpaceOnUse">
<stop stop-color="#DEC42F"/>
<stop offset="1" stop-color="#D97220"/>
</linearGradient>
<linearGradient id="paint6_linear_1992_26574" x1="16" y1="269.525" x2="16" y2="247.719" gradientUnits="userSpaceOnUse">
<stop stop-color="#DEC42F"/>
<stop offset="1" stop-color="#D97220"/>
</linearGradient>
</defs>
</svg>
