<svg width="119" height="46" viewBox="0 0 119 46" fill="none" xmlns="http://www.w3.org/2000/svg">
<rect x="0.00488281" y="0.578613" width="118.346" height="45.1154" rx="10.4615" fill="#1E1E1E"/>
<g clip-path="url(#clip0_1992_27167)">
<path d="M19.907 22.3408L5.59082 37.3399C5.75159 37.9096 6.0405 38.4351 6.43546 38.8761C6.83042 39.317 7.32098 39.6619 7.86964 39.8842C8.41829 40.1065 9.01052 40.2005 9.60104 40.1589C10.1916 40.1172 10.7648 39.9411 11.2768 39.644L27.3852 30.4698L19.907 22.3408Z" fill="#EA4335"/>
<path d="M34.3829 19.7912L27.4171 15.8013L19.5762 22.6819L27.449 30.4482L34.3618 26.501C34.9741 26.1803 35.4871 25.6982 35.845 25.1068C36.2029 24.5154 36.3921 23.8373 36.3921 23.146C36.3921 22.4548 36.2029 21.7767 35.845 21.1853C35.4871 20.5939 34.9741 20.1117 34.3618 19.7911L34.3829 19.7912Z" fill="#FBBC04"/>
<path d="M5.591 8.87842C5.50451 9.19834 5.46144 9.52843 5.46293 9.85983V36.3587C5.46378 36.69 5.50682 37.0198 5.591 37.3402L20.398 22.7252L5.591 8.87842Z" fill="#4285F4"/>
<path d="M20.0137 23.1091L27.4173 15.8016L11.3302 6.58458C10.7249 6.23012 10.0365 6.0424 9.33512 6.04053C7.59448 6.03715 6.06419 7.19242 5.59082 8.86758L20.0137 23.1091Z" fill="#34A853"/>
</g>
<rect width="72.5769" height="28.2692" transform="translate(40.3154 9.00195)" fill="#1E1E1E"/>
<path d="M45.3216 13.6484C45.2615 13.4599 45.1807 13.291 45.0792 13.1419C44.9797 12.9906 44.8606 12.8622 44.7218 12.7566C44.583 12.6488 44.4245 12.567 44.2464 12.5111C44.0703 12.4551 43.8766 12.4272 43.6653 12.4272C43.3069 12.4272 42.9837 12.5194 42.6957 12.7037C42.4078 12.8881 42.1799 13.1585 42.0121 13.5148C41.8464 13.869 41.7635 14.303 41.7635 14.8168C41.7635 15.3326 41.8474 15.7687 42.0152 16.125C42.183 16.4814 42.413 16.7517 42.7051 16.9361C42.9972 17.1205 43.3297 17.2127 43.7026 17.2127C44.0485 17.2127 44.35 17.1422 44.6068 17.0013C44.8658 16.8605 45.0657 16.6616 45.2066 16.4047C45.3495 16.1458 45.421 15.8412 45.421 15.4911L45.6696 15.5377H43.8486V14.7453H46.3501V15.4694C46.3501 16.0039 46.2362 16.4679 46.0083 16.8615C45.7825 17.2531 45.4697 17.5555 45.0698 17.7689C44.6721 17.9823 44.2163 18.089 43.7026 18.089C43.1266 18.089 42.6212 17.9564 42.1861 17.6912C41.7531 17.426 41.4155 17.05 41.1731 16.5632C40.9307 16.0743 40.8095 15.4942 40.8095 14.823C40.8095 14.3155 40.88 13.8597 41.0208 13.4557C41.1617 13.0518 41.3595 12.7089 41.6143 12.4272C41.8712 12.1433 42.1727 11.9269 42.5186 11.7777C42.8667 11.6265 43.2468 11.5509 43.6591 11.5509C44.003 11.5509 44.323 11.6016 44.6193 11.7031C44.9176 11.8046 45.1828 11.9486 45.4148 12.1351C45.6489 12.3215 45.8426 12.5432 45.9959 12.8001C46.1492 13.0549 46.2528 13.3376 46.3066 13.6484H45.3216ZM49.5516 18.0983C49.0813 18.0983 48.6763 17.9978 48.3366 17.7969C47.9989 17.5938 47.7379 17.309 47.5535 16.9423C47.3712 16.5736 47.28 16.1416 47.28 15.6465C47.28 15.1576 47.3712 14.7267 47.5535 14.3538C47.7379 13.9809 47.9948 13.6898 48.3241 13.4806C48.6556 13.2714 49.043 13.1667 49.4863 13.1667C49.7556 13.1667 50.0167 13.2113 50.2694 13.3004C50.5222 13.3894 50.749 13.5293 50.9499 13.7199C51.1509 13.9105 51.3094 14.158 51.4254 14.4626C51.5414 14.765 51.5994 15.1327 51.5994 15.5657V15.8951H47.8052V15.199H50.6889C50.6889 14.9546 50.6392 14.7381 50.5398 14.5496C50.4403 14.359 50.3005 14.2088 50.1203 14.099C49.9421 13.9892 49.7329 13.9343 49.4925 13.9343C49.2315 13.9343 49.0036 13.9985 48.8089 14.1269C48.6162 14.2533 48.4671 14.419 48.3614 14.6241C48.2578 14.8272 48.2061 15.0478 48.2061 15.286V15.8298C48.2061 16.1489 48.262 16.4203 48.3739 16.644C48.4878 16.8677 48.6463 17.0386 48.8493 17.1567C49.0523 17.2727 49.2895 17.3307 49.5609 17.3307C49.737 17.3307 49.8976 17.3059 50.0426 17.2562C50.1876 17.2044 50.3129 17.1277 50.4186 17.0262C50.5242 16.9247 50.605 16.7994 50.661 16.6502L51.5404 16.8087C51.4699 17.0676 51.3436 17.2945 51.1613 17.4892C50.981 17.6819 50.7542 17.8321 50.4807 17.9398C50.2093 18.0455 49.8996 18.0983 49.5516 18.0983ZM54.8584 13.2289V13.9747H52.2512V13.2289H54.8584ZM52.9504 12.0853H53.8795V16.6005C53.8795 16.7807 53.9064 16.9164 53.9603 17.0076C54.0142 17.0966 54.0836 17.1578 54.1685 17.1909C54.2555 17.222 54.3498 17.2375 54.4513 17.2375C54.5259 17.2375 54.5911 17.2323 54.6471 17.222C54.703 17.2116 54.7465 17.2033 54.7776 17.1971L54.9454 17.9647C54.8915 17.9854 54.8149 18.0061 54.7154 18.0268C54.616 18.0496 54.4917 18.062 54.3425 18.0641C54.0981 18.0682 53.8702 18.0247 53.6589 17.9336C53.4476 17.8424 53.2767 17.7016 53.1461 17.511C53.0156 17.3204 52.9504 17.0811 52.9504 16.7931V12.0853ZM58.202 18.002V13.2289H59.1311V18.002H58.202ZM58.6712 12.4924C58.5096 12.4924 58.3708 12.4386 58.2548 12.3308C58.1409 12.221 58.0839 12.0905 58.0839 11.9393C58.0839 11.786 58.1409 11.6555 58.2548 11.5477C58.3708 11.438 58.5096 11.3831 58.6712 11.3831C58.8328 11.3831 58.9706 11.438 59.0845 11.5477C59.2005 11.6555 59.2585 11.786 59.2585 11.9393C59.2585 12.0905 59.2005 12.221 59.0845 12.3308C58.9706 12.4386 58.8328 12.4924 58.6712 12.4924ZM62.6092 13.2289V13.9747H60.002V13.2289H62.6092ZM60.7012 12.0853H61.6303V16.6005C61.6303 16.7807 61.6572 16.9164 61.7111 17.0076C61.765 17.0966 61.8344 17.1578 61.9193 17.1909C62.0063 17.222 62.1006 17.2375 62.2021 17.2375C62.2767 17.2375 62.3419 17.2323 62.3978 17.222C62.4538 17.2116 62.4973 17.2033 62.5284 17.1971L62.6962 17.9647C62.6423 17.9854 62.5656 18.0061 62.4662 18.0268C62.3668 18.0496 62.2425 18.062 62.0933 18.0641C61.8489 18.0682 61.621 18.0247 61.4097 17.9336C61.1984 17.8424 61.0275 17.7016 60.8969 17.511C60.7664 17.3204 60.7012 17.0811 60.7012 16.7931V12.0853ZM67.9633 18.0983C67.5158 18.0983 67.1253 17.9957 66.7918 17.7906C66.4583 17.5856 66.1993 17.2986 66.0149 16.9299C65.8306 16.5611 65.7384 16.1302 65.7384 15.6372C65.7384 15.1421 65.8306 14.7091 66.0149 14.3383C66.1993 13.9674 66.4583 13.6795 66.7918 13.4744C67.1253 13.2693 67.5158 13.1667 67.9633 13.1667C68.4108 13.1667 68.8013 13.2693 69.1348 13.4744C69.4684 13.6795 69.7273 13.9674 69.9117 14.3383C70.0961 14.7091 70.1883 15.1421 70.1883 15.6372C70.1883 16.1302 70.0961 16.5611 69.9117 16.9299C69.7273 17.2986 69.4684 17.5856 69.1348 17.7906C68.8013 17.9957 68.4108 18.0983 67.9633 18.0983ZM67.9664 17.3183C68.2565 17.3183 68.4968 17.2417 68.6874 17.0884C68.8779 16.9351 69.0188 16.731 69.11 16.4762C69.2032 16.2214 69.2498 15.9407 69.2498 15.6341C69.2498 15.3295 69.2032 15.0499 69.11 14.7951C69.0188 14.5382 68.8779 14.332 68.6874 14.1767C68.4968 14.0213 68.2565 13.9436 67.9664 13.9436C67.6743 13.9436 67.4319 14.0213 67.2393 14.1767C67.0487 14.332 66.9068 14.5382 66.8136 14.7951C66.7224 15.0499 66.6768 15.3295 66.6768 15.6341C66.6768 15.9407 66.7224 16.2214 66.8136 16.4762C66.9068 16.731 67.0487 16.9351 67.2393 17.0884C67.4319 17.2417 67.6743 17.3183 67.9664 17.3183ZM72.1545 15.1679V18.002H71.2254V13.2289H72.1172V14.0058H72.1763C72.2861 13.753 72.458 13.55 72.6921 13.3967C72.9283 13.2434 73.2255 13.1667 73.5839 13.1667C73.9092 13.1667 74.194 13.2351 74.4385 13.3718C74.6829 13.5065 74.8725 13.7074 75.0072 13.9747C75.1418 14.2419 75.2091 14.5723 75.2091 14.966V18.002H74.28V15.0778C74.28 14.7319 74.1899 14.4615 74.0097 14.2668C73.8294 14.07 73.5819 13.9716 73.267 13.9716C73.0515 13.9716 72.8599 14.0182 72.6921 14.1114C72.5264 14.2046 72.3948 14.3414 72.2975 14.5216C72.2022 14.6998 72.1545 14.9152 72.1545 15.1679Z" fill="white"/>
<path d="M46.5801 28.6181C46.523 28.4196 46.4428 28.2443 46.3394 28.092C46.2361 27.937 46.1097 27.8065 45.9601 27.7005C45.8133 27.5917 45.6447 27.5088 45.4544 27.4517C45.2668 27.3946 45.0588 27.366 44.8304 27.366C44.4035 27.366 44.0283 27.4721 43.7047 27.6841C43.3839 27.8962 43.1337 28.2048 42.9542 28.61C42.7748 29.0124 42.6851 29.5045 42.6851 30.0864C42.6851 30.6683 42.7734 31.1631 42.9502 31.571C43.1269 31.9789 43.3771 32.2902 43.7006 32.505C44.0242 32.7171 44.4062 32.8231 44.8467 32.8231C45.2464 32.8231 45.5876 32.7524 45.8704 32.611C46.1559 32.4669 46.3734 32.2644 46.523 32.0033C46.6752 31.7423 46.7514 31.4337 46.7514 31.0775L47.1103 31.1305H44.9568V29.8009H48.4521V30.8532C48.4521 31.5873 48.2971 32.2181 47.9872 32.7456C47.6772 33.2704 47.2503 33.6755 46.7065 33.961C46.1627 34.2438 45.54 34.3852 44.8385 34.3852C44.0555 34.3852 43.3675 34.2125 42.7748 33.8672C42.182 33.5192 41.7198 33.0257 41.3881 32.3867C41.0591 31.745 40.8946 30.9837 40.8946 30.1027C40.8946 29.4257 40.9925 28.8221 41.1882 28.2918C41.3867 27.7589 41.6641 27.3076 42.0203 26.9378C42.3765 26.568 42.7911 26.2866 43.2642 26.0935C43.7373 25.9005 44.2499 25.8039 44.8018 25.8039C45.2749 25.8039 45.7154 25.8733 46.1233 26.0119C46.5311 26.1479 46.8928 26.3409 47.2082 26.5911C47.5263 26.8412 47.786 27.139 47.9872 27.4843C48.1884 27.8269 48.3175 28.2048 48.3746 28.6181H46.5801ZM52.5766 34.3934C51.943 34.3934 51.3951 34.2588 50.9329 33.9896C50.4734 33.7177 50.1186 33.3397 49.8684 32.8557C49.6183 32.369 49.4932 31.8048 49.4932 31.1631C49.4932 30.516 49.6183 29.9505 49.8684 29.4665C50.1186 28.9798 50.4734 28.6018 50.9329 28.3326C51.3951 28.0607 51.943 27.9248 52.5766 27.9248C53.2101 27.9248 53.7566 28.0607 54.2161 28.3326C54.6784 28.6018 55.0346 28.9798 55.2847 29.4665C55.5349 29.9505 55.6599 30.516 55.6599 31.1631C55.6599 31.8048 55.5349 32.369 55.2847 32.8557C55.0346 33.3397 54.6784 33.7177 54.2161 33.9896C53.7566 34.2588 53.2101 34.3934 52.5766 34.3934ZM52.5847 33.0474C52.8729 33.0474 53.1136 32.9659 53.3066 32.8027C53.4997 32.6369 53.6451 32.4112 53.743 32.1257C53.8436 31.8402 53.8939 31.5153 53.8939 31.1509C53.8939 30.7866 53.8436 30.4616 53.743 30.1761C53.6451 29.8906 53.4997 29.665 53.3066 29.4991C53.1136 29.3332 52.8729 29.2503 52.5847 29.2503C52.2938 29.2503 52.0491 29.3332 51.8506 29.4991C51.6548 29.665 51.5066 29.8906 51.406 30.1761C51.3081 30.4616 51.2592 30.7866 51.2592 31.1509C51.2592 31.5153 51.3081 31.8402 51.406 32.1257C51.5066 32.4112 51.6548 32.6369 51.8506 32.8027C52.0491 32.9659 52.2938 33.0474 52.5847 33.0474ZM59.6202 34.3934C58.9867 34.3934 58.4388 34.2588 57.9766 33.9896C57.517 33.7177 57.1622 33.3397 56.9121 32.8557C56.6619 32.369 56.5368 31.8048 56.5368 31.1631C56.5368 30.516 56.6619 29.9505 56.9121 29.4665C57.1622 28.9798 57.517 28.6018 57.9766 28.3326C58.4388 28.0607 58.9867 27.9248 59.6202 27.9248C60.2537 27.9248 60.8003 28.0607 61.2598 28.3326C61.722 28.6018 62.0782 28.9798 62.3284 29.4665C62.5785 29.9505 62.7036 30.516 62.7036 31.1631C62.7036 31.8048 62.5785 32.369 62.3284 32.8557C62.0782 33.3397 61.722 33.7177 61.2598 33.9896C60.8003 34.2588 60.2537 34.3934 59.6202 34.3934ZM59.6284 33.0474C59.9166 33.0474 60.1572 32.9659 60.3503 32.8027C60.5433 32.6369 60.6888 32.4112 60.7867 32.1257C60.8873 31.8402 60.9376 31.5153 60.9376 31.1509C60.9376 30.7866 60.8873 30.4616 60.7867 30.1761C60.6888 29.8906 60.5433 29.665 60.3503 29.4991C60.1572 29.3332 59.9166 29.2503 59.6284 29.2503C59.3374 29.2503 59.0927 29.3332 58.8942 29.4991C58.6985 29.665 58.5503 29.8906 58.4497 30.1761C58.3518 30.4616 58.3028 30.7866 58.3028 31.1509C58.3028 31.5153 58.3518 31.8402 58.4497 32.1257C58.5503 32.4112 58.6985 32.6369 58.8942 32.8027C59.0927 32.9659 59.3374 33.0474 59.6284 33.0474ZM66.6557 36.7508C66.0929 36.7508 65.6102 36.6733 65.2078 36.5183C64.8081 36.366 64.49 36.158 64.2534 35.8943C64.0169 35.6305 63.8633 35.3341 63.7926 35.0051L65.3995 34.789C65.4485 34.914 65.5259 35.031 65.632 35.1397C65.738 35.2485 65.8781 35.3355 66.0521 35.4008C66.2288 35.4687 66.4436 35.5027 66.6965 35.5027C67.0744 35.5027 67.3858 35.4103 67.6305 35.2254C67.8779 35.0432 68.0016 34.7373 68.0016 34.3077V33.1616H67.9282C67.8521 33.3356 67.7379 33.5002 67.5856 33.6551C67.4333 33.8101 67.2376 33.9366 66.9983 34.0344C66.759 34.1323 66.4735 34.1813 66.1418 34.1813C65.6714 34.1813 65.2432 34.0725 64.8571 33.855C64.4737 33.6347 64.1678 33.2989 63.9394 32.8476C63.7137 32.3935 63.6009 31.8198 63.6009 31.1264C63.6009 30.4168 63.7164 29.824 63.9475 29.3482C64.1787 28.8724 64.4859 28.5162 64.8693 28.2796C65.2554 28.0431 65.6782 27.9248 66.1377 27.9248C66.4885 27.9248 66.7821 27.9846 67.0187 28.1042C67.2552 28.2212 67.4456 28.368 67.5897 28.5447C67.7365 28.7187 67.8494 28.89 67.9282 29.0586H67.9935V28.0063H69.7187V34.3322C69.7187 34.8651 69.5882 35.311 69.3272 35.6699C69.0661 36.0288 68.7045 36.298 68.2423 36.4775C67.7827 36.6597 67.2539 36.7508 66.6557 36.7508ZM66.6924 32.8761C66.9725 32.8761 67.209 32.8068 67.4021 32.6681C67.5978 32.5267 67.7474 32.3255 67.8507 32.0645C67.9568 31.8008 68.0098 31.4853 68.0098 31.1183C68.0098 30.7512 67.9581 30.4331 67.8548 30.1639C67.7515 29.892 67.6019 29.6813 67.4062 29.5317C67.2104 29.3822 66.9725 29.3074 66.6924 29.3074C66.4069 29.3074 66.1663 29.3849 65.9705 29.5399C65.7747 29.6921 65.6265 29.9042 65.5259 30.1761C65.4253 30.448 65.375 30.7621 65.375 31.1183C65.375 31.4799 65.4253 31.7926 65.5259 32.0563C65.6293 32.3174 65.7775 32.5199 65.9705 32.664C66.1663 32.8054 66.4069 32.8761 66.6924 32.8761ZM72.8388 25.9181V34.271H71.1013V25.9181H72.8388ZM77.0856 34.3934C76.4412 34.3934 75.8865 34.2628 75.4215 34.0018C74.9593 33.7381 74.6031 33.3656 74.3529 32.8843C74.1028 32.4003 73.9777 31.8279 73.9777 31.1672C73.9777 30.5228 74.1028 29.9573 74.3529 29.4705C74.6031 28.9838 74.9552 28.6045 75.4093 28.3326C75.8661 28.0607 76.4017 27.9248 77.0162 27.9248C77.4295 27.9248 77.8143 27.9914 78.1705 28.1246C78.5294 28.2551 78.8421 28.4523 79.1085 28.716C79.3777 28.9798 79.5871 29.3115 79.7366 29.7112C79.8862 30.1082 79.9609 30.5731 79.9609 31.106V31.5832H74.6711V30.5065H78.3254C78.3254 30.2563 78.2711 30.0347 78.1623 29.8417C78.0535 29.6486 77.9026 29.4977 77.7096 29.389C77.5192 29.2775 77.2976 29.2218 77.0448 29.2218C76.781 29.2218 76.5472 29.2829 76.3433 29.4053C76.1421 29.5249 75.9844 29.6867 75.8702 29.8906C75.756 30.0918 75.6975 30.3162 75.6948 30.5636V31.5873C75.6948 31.8973 75.7519 32.1651 75.8661 32.3908C75.983 32.6165 76.1475 32.7905 76.3596 32.9128C76.5717 33.0352 76.8232 33.0964 77.1141 33.0964C77.3072 33.0964 77.4839 33.0692 77.6443 33.0148C77.8047 32.9604 77.9421 32.8789 78.0563 32.7701C78.1705 32.6613 78.2575 32.5281 78.3173 32.3704L79.9242 32.4764C79.8427 32.8625 79.6754 33.1997 79.4226 33.4879C79.1724 33.7734 78.8489 33.9964 78.4519 34.1568C78.0576 34.3145 77.6022 34.3934 77.0856 34.3934ZM83.7856 34.271V25.9181H87.0811C87.7146 25.9181 88.2543 26.0391 88.7002 26.2811C89.1462 26.5204 89.486 26.8535 89.7199 27.2804C89.9564 27.7045 90.0747 28.194 90.0747 28.7486C90.0747 29.3033 89.9551 29.7928 89.7158 30.2169C89.4765 30.6411 89.1299 30.9715 88.6758 31.208C88.2244 31.4446 87.6779 31.5628 87.0362 31.5628H84.9357V30.1476H86.7507C87.0906 30.1476 87.3706 30.0891 87.5909 29.9722C87.8138 29.8526 87.9797 29.6881 88.0885 29.4787C88.1999 29.2666 88.2557 29.0233 88.2557 28.7486C88.2557 28.4713 88.1999 28.2293 88.0885 28.0227C87.9797 27.8133 87.8138 27.6515 87.5909 27.5373C87.3679 27.4204 87.0851 27.3619 86.7425 27.3619H85.5516V34.271H83.7856ZM92.9266 25.9181V34.271H91.1892V25.9181H92.9266ZM96.1048 34.3893C95.7051 34.3893 95.349 34.3199 95.0363 34.1813C94.7236 34.0399 94.4761 33.8319 94.294 33.5573C94.1145 33.2799 94.0248 32.9346 94.0248 32.5213C94.0248 32.1733 94.0887 31.881 94.2165 31.6444C94.3443 31.4079 94.5183 31.2175 94.7385 31.0734C94.9588 30.9293 95.2089 30.8205 95.489 30.7471C95.7718 30.6737 96.0681 30.6221 96.3781 30.5921C96.7425 30.5541 97.0361 30.5187 97.2591 30.4861C97.482 30.4508 97.6438 30.3991 97.7444 30.3311C97.845 30.2631 97.8953 30.1625 97.8953 30.0293V30.0048C97.8953 29.7465 97.8138 29.5467 97.6506 29.4053C97.4902 29.2639 97.2618 29.1932 96.9654 29.1932C96.6527 29.1932 96.4039 29.2625 96.219 29.4012C96.0341 29.5372 95.9118 29.7085 95.852 29.9151L94.245 29.7846C94.3266 29.4039 94.487 29.0749 94.7263 28.7976C94.9656 28.5175 95.2742 28.3027 95.6521 28.1532C96.0328 28.0009 96.4733 27.9248 96.9736 27.9248C97.3216 27.9248 97.6547 27.9656 97.9728 28.0471C98.2937 28.1287 98.5778 28.2551 98.8252 28.4264C99.0754 28.5977 99.2725 28.818 99.4166 29.0872C99.5607 29.3536 99.6328 29.6731 99.6328 30.0456V34.271H97.9851V33.4023H97.9361C97.8355 33.598 97.7009 33.7707 97.5323 33.9202C97.3638 34.0671 97.1612 34.1826 96.9246 34.2669C96.6881 34.3485 96.4148 34.3893 96.1048 34.3893ZM96.6024 33.1902C96.858 33.1902 97.0837 33.1399 97.2795 33.0393C97.4752 32.936 97.6289 32.7973 97.7403 32.6233C97.8518 32.4492 97.9076 32.2521 97.9076 32.0319V31.3671C97.8532 31.4024 97.7784 31.435 97.6832 31.465C97.5908 31.4921 97.4861 31.518 97.3692 31.5424C97.2523 31.5642 97.1354 31.5846 97.0184 31.6036C96.9015 31.6199 96.7955 31.6349 96.7003 31.6485C96.4964 31.6784 96.3183 31.726 96.166 31.7912C96.0138 31.8565 95.8955 31.9449 95.8112 32.0563C95.7269 32.1651 95.6848 32.3011 95.6848 32.4642C95.6848 32.7008 95.7704 32.8816 95.9417 33.0066C96.1157 33.129 96.336 33.1902 96.6024 33.1902ZM101.829 36.6202C101.609 36.6202 101.402 36.6026 101.209 36.5672C101.019 36.5346 100.861 36.4924 100.736 36.4408L101.128 35.1438C101.332 35.2063 101.515 35.2403 101.678 35.2458C101.844 35.2512 101.987 35.2131 102.106 35.1316C102.229 35.05 102.328 34.9113 102.404 34.7156L102.506 34.4505L100.259 28.0063H102.086L103.383 32.6069H103.448L104.757 28.0063H106.597L104.162 34.948C104.045 35.2852 103.886 35.5788 103.685 35.829C103.486 36.0819 103.235 36.2763 102.93 36.4122C102.626 36.5509 102.259 36.6202 101.829 36.6202Z" fill="white"/>
<defs>
<clipPath id="clip0_1992_27167">
<rect width="30.9297" height="34.1918" fill="white" transform="translate(5.46289 6.04053)"/>
</clipPath>
</defs>
</svg>
