<svg width="119" height="46" viewBox="0 0 119 46" fill="none" xmlns="http://www.w3.org/2000/svg">
<rect x="0.351074" y="0.578613" width="118.346" height="45.1154" rx="10.4615" fill="#1E1E1E"/>
<g clip-path="url(#clip0_1992_27177)">
<path d="M12.5837 7.67139H29.9661C33.7072 7.67139 36.7397 10.7039 36.7397 14.445V31.8275C36.7397 35.5685 33.7072 38.6011 29.9661 38.6011H12.5837C8.84262 38.6011 5.81006 35.5685 5.81006 31.8275V14.445C5.81006 10.7039 8.84262 7.67139 12.5837 7.67139Z" fill="url(#paint0_linear_1992_27177)"/>
<path d="M15.7218 30.1206L15.7247 30.1215L14.6672 31.9532C14.2812 32.6218 13.4263 32.8508 12.7577 32.4648C12.0891 32.0788 11.86 31.2239 12.246 30.5553L13.025 29.206L13.0998 29.0765C13.2333 28.8846 13.5628 28.5533 14.2219 28.6157C14.2219 28.6157 15.7728 28.784 15.8851 29.5901C15.8851 29.5901 15.9003 29.8553 15.7218 30.1206ZM30.7207 25.4425H27.4231C27.1984 25.4274 27.1005 25.3471 27.0618 25.3005L27.0594 25.2963L23.5294 19.1821L23.5248 19.1851L23.3131 18.8816C22.9662 18.351 22.4152 19.708 22.4152 19.708C21.7574 21.2202 22.5086 22.9393 22.7704 23.459L27.6735 31.9514C28.0594 32.6198 28.9143 32.849 29.5831 32.4629C30.2515 32.0769 30.4807 31.222 30.0946 30.5534L28.8687 28.4298C28.8448 28.3784 28.8035 28.2387 29.055 28.2381H30.7207C31.4927 28.2381 32.1186 27.6123 32.1186 26.8402C32.1186 26.0682 31.4927 25.4425 30.7207 25.4425ZM24.3156 27.3426C24.3156 27.3426 24.4916 28.238 23.8106 28.238H11.62C10.848 28.238 10.2222 27.6121 10.2222 26.8401C10.2222 26.0681 10.848 25.4422 11.62 25.4422H14.7541C15.2601 25.413 15.3799 25.1208 15.3799 25.1208L15.3828 25.1223L19.4738 18.0365L19.4726 18.0363C19.5471 17.8994 19.485 17.77 19.4742 17.7496L18.1231 15.4094C17.7371 14.7409 17.9662 13.8859 18.6348 13.5C19.3034 13.1141 20.1583 13.3429 20.5443 14.0115L21.1709 15.0969L21.7964 14.0135C22.1824 13.345 23.0373 13.1158 23.7059 13.5019C24.3745 13.8881 24.6036 14.7427 24.2176 15.4114L18.5249 25.2714C18.5 25.3314 18.4923 25.4257 18.6776 25.4422H22.0803L22.081 25.4755C22.081 25.4755 24.0477 25.506 24.3156 27.3426Z" fill="white"/>
</g>
<rect width="72.5769" height="28.2692" transform="translate(40.6616 9.00146)" fill="#1E1E1E"/>
<path d="M45.6677 13.6479C45.6077 13.4594 45.5269 13.2905 45.4254 13.1414C45.3259 12.9902 45.2068 12.8617 45.068 12.7561C44.9292 12.6483 44.7707 12.5665 44.5926 12.5106C44.4165 12.4546 44.2228 12.4267 44.0115 12.4267C43.6531 12.4267 43.3299 12.5189 43.0419 12.7032C42.754 12.8876 42.5261 13.158 42.3583 13.5143C42.1926 13.8685 42.1097 14.3025 42.1097 14.8163C42.1097 15.3322 42.1936 15.7682 42.3614 16.1246C42.5292 16.4809 42.7592 16.7512 43.0513 16.9356C43.3434 17.12 43.6759 17.2122 44.0488 17.2122C44.3947 17.2122 44.6961 17.1417 44.953 17.0009C45.212 16.86 45.4119 16.6611 45.5528 16.4042C45.6957 16.1453 45.7672 15.8407 45.7672 15.4906L46.0158 15.5372H44.1948V14.7448H46.6963V15.4689C46.6963 16.0034 46.5824 16.4674 46.3545 16.861C46.1287 17.2526 45.8159 17.555 45.416 17.7684C45.0183 17.9818 44.5625 18.0885 44.0488 18.0885C43.4728 18.0885 42.9674 17.9559 42.5323 17.6907C42.0993 17.4255 41.7617 17.0495 41.5193 16.5627C41.2769 16.0738 41.1557 15.4937 41.1557 14.8225C41.1557 14.315 41.2261 13.8592 41.367 13.4552C41.5079 13.0513 41.7057 12.7084 41.9605 12.4267C42.2174 12.1429 42.5188 11.9264 42.8648 11.7772C43.2128 11.626 43.593 11.5504 44.0053 11.5504C44.3491 11.5504 44.6692 11.6011 44.9655 11.7026C45.2638 11.8041 45.5289 11.9481 45.761 12.1346C45.9951 12.321 46.1888 12.5427 46.3421 12.7996C46.4954 13.0544 46.5989 13.3372 46.6528 13.6479H45.6677ZM49.8978 18.0978C49.4275 18.0978 49.0225 17.9973 48.6828 17.7964C48.3451 17.5934 48.0841 17.3085 47.8997 16.9418C47.7174 16.5731 47.6262 16.1411 47.6262 15.646C47.6262 15.1571 47.7174 14.7262 47.8997 14.3533C48.0841 13.9804 48.3409 13.6893 48.6703 13.4801C49.0018 13.2709 49.3892 13.1663 49.8325 13.1663C50.1018 13.1663 50.3629 13.2108 50.6156 13.2999C50.8683 13.389 51.0952 13.5288 51.2961 13.7194C51.4971 13.91 51.6556 14.1575 51.7716 14.4621C51.8876 14.7645 51.9456 15.1322 51.9456 15.5652V15.8946H48.1514V15.1985H51.0351C51.0351 14.9541 50.9854 14.7376 50.886 14.5491C50.7865 14.3585 50.6467 14.2083 50.4664 14.0985C50.2883 13.9887 50.079 13.9338 49.8387 13.9338C49.5777 13.9338 49.3498 13.998 49.1551 14.1265C48.9624 14.2528 48.8133 14.4186 48.7076 14.6237C48.604 14.8267 48.5522 15.0473 48.5522 15.2855V15.8293C48.5522 16.1484 48.6082 16.4198 48.7201 16.6435C48.834 16.8672 48.9925 17.0382 49.1955 17.1562C49.3985 17.2722 49.6357 17.3303 49.9071 17.3303C50.0832 17.3303 50.2437 17.3054 50.3888 17.2557C50.5338 17.2039 50.6591 17.1272 50.7648 17.0257C50.8704 16.9242 50.9512 16.7989 51.0071 16.6497L51.8866 16.8082C51.8161 17.0672 51.6898 17.294 51.5074 17.4887C51.3272 17.6814 51.1004 17.8316 50.8269 17.9393C50.5555 18.045 50.2458 18.0978 49.8978 18.0978ZM55.2046 13.2284V13.9742H52.5974V13.2284H55.2046ZM53.2966 12.0849H54.2257V16.6C54.2257 16.7802 54.2526 16.9159 54.3065 17.0071C54.3604 17.0962 54.4298 17.1573 54.5147 17.1904C54.6017 17.2215 54.696 17.237 54.7975 17.237C54.8721 17.237 54.9373 17.2318 54.9932 17.2215C55.0492 17.2111 55.0927 17.2028 55.1238 17.1966L55.2916 17.9642C55.2377 17.9849 55.161 18.0056 55.0616 18.0263C54.9622 18.0491 54.8379 18.0615 54.6887 18.0636C54.4443 18.0678 54.2164 18.0243 54.0051 17.9331C53.7938 17.8419 53.6229 17.7011 53.4923 17.5105C53.3618 17.3199 53.2966 17.0806 53.2966 16.7927V12.0849ZM58.5482 18.0015V13.2284H59.4773V18.0015H58.5482ZM59.0174 12.4919C58.8558 12.4919 58.717 12.4381 58.601 12.3303C58.4871 12.2205 58.4301 12.09 58.4301 11.9388C58.4301 11.7855 58.4871 11.655 58.601 11.5473C58.717 11.4375 58.8558 11.3826 59.0174 11.3826C59.179 11.3826 59.3168 11.4375 59.4307 11.5473C59.5467 11.655 59.6047 11.7855 59.6047 11.9388C59.6047 12.09 59.5467 12.2205 59.4307 12.3303C59.3168 12.4381 59.179 12.4919 59.0174 12.4919ZM62.9553 13.2284V13.9742H60.3482V13.2284H62.9553ZM61.0474 12.0849H61.9765V16.6C61.9765 16.7802 62.0034 16.9159 62.0573 17.0071C62.1112 17.0962 62.1806 17.1573 62.2655 17.1904C62.3525 17.2215 62.4468 17.237 62.5483 17.237C62.6228 17.237 62.6881 17.2318 62.744 17.2215C62.8 17.2111 62.8435 17.2028 62.8746 17.1966L63.0424 17.9642C62.9885 17.9849 62.9118 18.0056 62.8124 18.0263C62.713 18.0491 62.5887 18.0615 62.4395 18.0636C62.1951 18.0678 61.9672 18.0243 61.7559 17.9331C61.5446 17.8419 61.3736 17.7011 61.2431 17.5105C61.1126 17.3199 61.0474 17.0806 61.0474 16.7927V12.0849ZM68.3095 18.0978C67.862 18.0978 67.4715 17.9952 67.138 17.7902C66.8045 17.5851 66.5455 17.2981 66.3611 16.9294C66.1768 16.5606 66.0846 16.1297 66.0846 15.6367C66.0846 15.1416 66.1768 14.7086 66.3611 14.3378C66.5455 13.9669 66.8045 13.679 67.138 13.4739C67.4715 13.2688 67.862 13.1663 68.3095 13.1663C68.757 13.1663 69.1475 13.2688 69.481 13.4739C69.8146 13.679 70.0735 13.9669 70.2579 14.3378C70.4423 14.7086 70.5345 15.1416 70.5345 15.6367C70.5345 16.1297 70.4423 16.5606 70.2579 16.9294C70.0735 17.2981 69.8146 17.5851 69.481 17.7902C69.1475 17.9952 68.757 18.0978 68.3095 18.0978ZM68.3126 17.3178C68.6026 17.3178 68.843 17.2412 69.0335 17.0879C69.2241 16.9346 69.365 16.7305 69.4562 16.4757C69.5494 16.2209 69.596 15.9402 69.596 15.6336C69.596 15.329 69.5494 15.0494 69.4562 14.7946C69.365 14.5377 69.2241 14.3315 69.0335 14.1762C68.843 14.0208 68.6026 13.9431 68.3126 13.9431C68.0205 13.9431 67.7781 14.0208 67.5855 14.1762C67.3949 14.3315 67.253 14.5377 67.1597 14.7946C67.0686 15.0494 67.023 15.329 67.023 15.6336C67.023 15.9402 67.0686 16.2209 67.1597 16.4757C67.253 16.7305 67.3949 16.9346 67.5855 17.0879C67.7781 17.2412 68.0205 17.3178 68.3126 17.3178ZM72.5007 15.1675V18.0015H71.5716V13.2284H72.4634V14.0053H72.5225C72.6322 13.7525 72.8042 13.5495 73.0383 13.3962C73.2745 13.2429 73.5717 13.1663 73.9301 13.1663C74.2554 13.1663 74.5402 13.2346 74.7847 13.3713C75.0291 13.506 75.2187 13.7069 75.3534 13.9742C75.488 14.2414 75.5553 14.5719 75.5553 14.9655V18.0015H74.6262V15.0773C74.6262 14.7314 74.5361 14.461 74.3559 14.2663C74.1756 14.0695 73.9281 13.9711 73.6132 13.9711C73.3977 13.9711 73.2061 14.0177 73.0383 14.1109C72.8726 14.2041 72.741 14.3409 72.6436 14.5211C72.5483 14.6993 72.5007 14.9147 72.5007 15.1675Z" fill="white"/>
<path d="M42.8273 34.2705H40.9349L43.8184 25.9176H46.0942L48.9737 34.2705H47.0813L44.989 27.8264H44.9237L42.8273 34.2705ZM42.7091 30.9873H47.1791V32.3658H42.7091V30.9873ZM49.9464 36.6198V28.0059H51.6594V29.0581H51.7369C51.813 28.8895 51.9232 28.7182 52.0673 28.5442C52.2141 28.3675 52.4044 28.2207 52.6383 28.1037C52.8748 27.9841 53.1685 27.9243 53.5192 27.9243C53.976 27.9243 54.3975 28.0439 54.7836 28.2832C55.1697 28.5198 55.4783 28.8773 55.7094 29.3559C55.9405 29.8317 56.0561 30.4285 56.0561 31.1463C56.0561 31.8451 55.9433 32.4352 55.7176 32.9164C55.4946 33.395 55.1901 33.758 54.804 34.0054C54.4206 34.2501 53.991 34.3725 53.5152 34.3725C53.178 34.3725 52.8911 34.3167 52.6546 34.2053C52.4208 34.0938 52.2291 33.9537 52.0795 33.7852C51.93 33.6139 51.8158 33.4412 51.7369 33.2672H51.6839V36.6198H49.9464ZM51.6472 31.1382C51.6472 31.5107 51.6988 31.8356 51.8022 32.113C51.9055 32.3903 52.055 32.6065 52.2508 32.7614C52.4466 32.9137 52.6845 32.9898 52.9646 32.9898C53.2473 32.9898 53.4866 32.9124 53.6824 32.7574C53.8782 32.5997 54.0263 32.3821 54.1269 32.1048C54.2303 31.8247 54.2819 31.5025 54.2819 31.1382C54.2819 30.7766 54.2316 30.4584 54.131 30.1838C54.0304 29.9092 53.8822 29.6944 53.6865 29.5394C53.4907 29.3844 53.2501 29.3069 52.9646 29.3069C52.6818 29.3069 52.4425 29.3817 52.2467 29.5312C52.0537 29.6808 51.9055 29.8929 51.8022 30.1675C51.6988 30.4421 51.6472 30.7657 51.6472 31.1382ZM57.2144 36.6198V28.0059H58.9274V29.0581H59.0049C59.081 28.8895 59.1911 28.7182 59.3352 28.5442C59.4821 28.3675 59.6724 28.2207 59.9062 28.1037C60.1428 27.9841 60.4365 27.9243 60.7872 27.9243C61.244 27.9243 61.6655 28.0439 62.0516 28.2832C62.4377 28.5198 62.7463 28.8773 62.9774 29.3559C63.2085 29.8317 63.3241 30.4285 63.3241 31.1463C63.3241 31.8451 63.2112 32.4352 62.9855 32.9164C62.7626 33.395 62.4581 33.758 62.072 34.0054C61.6886 34.2501 61.259 34.3725 60.7831 34.3725C60.446 34.3725 60.1591 34.3167 59.9226 34.2053C59.6887 34.0938 59.497 33.9537 59.3475 33.7852C59.1979 33.6139 59.0837 33.4412 59.0049 33.2672H58.9519V36.6198H57.2144ZM58.9152 31.1382C58.9152 31.5107 58.9668 31.8356 59.0701 32.113C59.1735 32.3903 59.323 32.6065 59.5188 32.7614C59.7146 32.9137 59.9525 32.9898 60.2325 32.9898C60.5153 32.9898 60.7546 32.9124 60.9504 32.7574C61.1461 32.5997 61.2943 32.3821 61.3949 32.1048C61.4982 31.8247 61.5499 31.5025 61.5499 31.1382C61.5499 30.7766 61.4996 30.4584 61.399 30.1838C61.2984 29.9092 61.1502 29.6944 60.9544 29.5394C60.7587 29.3844 60.518 29.3069 60.2325 29.3069C59.9497 29.3069 59.7105 29.3817 59.5147 29.5312C59.3217 29.6808 59.1735 29.8929 59.0701 30.1675C58.9668 30.4421 58.9152 30.7657 58.9152 31.1382ZM71.7045 28.3199C71.6718 27.9909 71.5318 27.7353 71.2844 27.5531C71.0369 27.371 70.7011 27.2799 70.277 27.2799C69.9888 27.2799 69.7454 27.3207 69.5469 27.4022C69.3484 27.4811 69.1962 27.5912 69.0901 27.7326C68.9868 27.874 68.9351 28.0344 68.9351 28.2139C68.9297 28.3634 68.961 28.4939 69.0289 28.6054C69.0996 28.7169 69.1962 28.8134 69.3185 28.895C69.4409 28.9738 69.5823 29.0432 69.7427 29.103C69.9031 29.1601 70.0744 29.209 70.2566 29.2498L71.007 29.4293C71.3714 29.5108 71.7058 29.6196 72.0103 29.7556C72.3149 29.8915 72.5786 30.0587 72.8016 30.2572C73.0245 30.4557 73.1972 30.6895 73.3196 30.9587C73.4446 31.2279 73.5085 31.5365 73.5113 31.8846C73.5085 32.3957 73.378 32.8389 73.1197 33.2142C72.8641 33.5867 72.4943 33.8762 72.0103 34.0829C71.5291 34.2868 70.9486 34.3888 70.2688 34.3888C69.5945 34.3888 69.0072 34.2855 68.5069 34.0788C68.0093 33.8722 67.6205 33.5663 67.3404 33.1611C67.0631 32.7533 66.9176 32.2489 66.904 31.648H68.6129C68.632 31.9281 68.7122 32.1619 68.8536 32.3495C68.9977 32.5344 69.1894 32.6744 69.4286 32.7696C69.6706 32.862 69.9439 32.9083 70.2484 32.9083C70.5475 32.9083 70.8072 32.8648 71.0274 32.7778C71.2504 32.6908 71.423 32.5698 71.5454 32.4148C71.6678 32.2598 71.7289 32.0817 71.7289 31.8805C71.7289 31.6929 71.6732 31.5352 71.5617 31.4074C71.4529 31.2796 71.2925 31.1708 71.0804 31.0811C70.8711 30.9914 70.6141 30.9098 70.3096 30.8364L69.4001 30.608C68.6959 30.4367 68.1398 30.1688 67.732 29.8045C67.3241 29.4401 67.1215 28.9494 67.1243 28.3321C67.1215 27.8264 67.2561 27.3846 67.528 27.0066C67.8026 26.6287 68.1792 26.3337 68.6578 26.1216C69.1363 25.9095 69.6801 25.8034 70.2892 25.8034C70.9091 25.8034 71.4502 25.9095 71.9125 26.1216C72.3774 26.3337 72.7391 26.6287 72.9974 27.0066C73.2557 27.3846 73.3889 27.8223 73.3971 28.3199H71.7045ZM77.9987 28.0059V29.311H74.226V28.0059H77.9987ZM75.0825 26.505H76.82V32.3454C76.82 32.5059 76.8444 32.6309 76.8934 32.7207C76.9423 32.8077 77.0103 32.8688 77.0973 32.9042C77.187 32.9395 77.2904 32.9572 77.4073 32.9572C77.4889 32.9572 77.5704 32.9504 77.652 32.9368C77.7336 32.9205 77.7961 32.9083 77.8396 32.9001L78.1129 34.193C78.0259 34.2202 77.9035 34.2515 77.7458 34.2868C77.5881 34.3249 77.3964 34.348 77.1707 34.3562C76.752 34.3725 76.3849 34.3167 76.0695 34.1889C75.7568 34.0611 75.5135 33.8627 75.3395 33.5935C75.1654 33.3243 75.0798 32.9844 75.0825 32.5738V26.505ZM81.8937 34.3929C81.2602 34.3929 80.7123 34.2583 80.25 33.9891C79.7905 33.7172 79.4357 33.3392 79.1855 32.8553C78.9354 32.3685 78.8103 31.8043 78.8103 31.1627C78.8103 30.5155 78.9354 29.95 79.1855 29.466C79.4357 28.9793 79.7905 28.6013 80.25 28.3321C80.7123 28.0602 81.2602 27.9243 81.8937 27.9243C82.5272 27.9243 83.0737 28.0602 83.5333 28.3321C83.9955 28.6013 84.3517 28.9793 84.6018 29.466C84.852 29.95 84.9771 30.5155 84.9771 31.1627C84.9771 31.8043 84.852 32.3685 84.6018 32.8553C84.3517 33.3392 83.9955 33.7172 83.5333 33.9891C83.0737 34.2583 82.5272 34.3929 81.8937 34.3929ZM81.9018 33.0469C82.1901 33.0469 82.4307 32.9654 82.6237 32.8022C82.8168 32.6364 82.9623 32.4107 83.0602 32.1252C83.1608 31.8397 83.2111 31.5148 83.2111 31.1504C83.2111 30.7861 83.1608 30.4611 83.0602 30.1756C82.9623 29.8901 82.8168 29.6645 82.6237 29.4986C82.4307 29.3327 82.1901 29.2498 81.9018 29.2498C81.6109 29.2498 81.3662 29.3327 81.1677 29.4986C80.9719 29.6645 80.8237 29.8901 80.7231 30.1756C80.6253 30.4611 80.5763 30.7861 80.5763 31.1504C80.5763 31.5148 80.6253 31.8397 80.7231 32.1252C80.8237 32.4107 80.9719 32.6364 81.1677 32.8022C81.3662 32.9654 81.6109 33.0469 81.9018 33.0469ZM86.1068 34.2705V28.0059H87.7913V29.0989H87.8565C87.9707 28.7101 88.1624 28.4164 88.4316 28.2179C88.7008 28.0167 89.0107 27.9161 89.3615 27.9161C89.4485 27.9161 89.5423 27.9216 89.6429 27.9324C89.7435 27.9433 89.8319 27.9583 89.908 27.9773V29.519C89.8265 29.4945 89.7136 29.4728 89.5695 29.4537C89.4254 29.4347 89.2935 29.4252 89.1739 29.4252C88.9183 29.4252 88.6899 29.4809 88.4887 29.5924C88.2902 29.7012 88.1325 29.8534 88.0156 30.0492C87.9014 30.245 87.8443 30.4707 87.8443 30.7263V34.2705H86.1068ZM93.3697 34.3929C92.7253 34.3929 92.1706 34.2624 91.7056 34.0013C91.2434 33.7376 90.8872 33.3651 90.6371 32.8838C90.3869 32.3998 90.2618 31.8275 90.2618 31.1667C90.2618 30.5223 90.3869 29.9568 90.6371 29.4701C90.8872 28.9834 91.2393 28.604 91.6934 28.3321C92.1502 28.0602 92.6859 27.9243 93.3004 27.9243C93.7137 27.9243 94.0984 27.9909 94.4546 28.1241C94.8135 28.2547 95.1262 28.4518 95.3927 28.7155C95.6618 28.9793 95.8712 29.311 96.0208 29.7107C96.1703 30.1077 96.2451 30.5726 96.2451 31.1056V31.5827H90.9552V30.506H94.6096C94.6096 30.2559 94.5552 30.0343 94.4464 29.8412C94.3377 29.6482 94.1868 29.4972 93.9937 29.3885C93.8034 29.277 93.5818 29.2213 93.3289 29.2213C93.0652 29.2213 92.8313 29.2824 92.6274 29.4048C92.4262 29.5244 92.2685 29.6862 92.1543 29.8901C92.0401 30.0914 91.9816 30.3157 91.9789 30.5631V31.5868C91.9789 31.8968 92.036 32.1646 92.1502 32.3903C92.2671 32.616 92.4316 32.79 92.6437 32.9124C92.8558 33.0347 93.1073 33.0959 93.3982 33.0959C93.5913 33.0959 93.768 33.0687 93.9285 33.0143C94.0889 32.9599 94.2262 32.8784 94.3404 32.7696C94.4546 32.6608 94.5416 32.5276 94.6014 32.3699L96.2084 32.4759C96.1268 32.862 95.9596 33.1992 95.7067 33.4874C95.4566 33.7729 95.133 33.9959 94.736 34.1563C94.3418 34.314 93.8863 34.3929 93.3697 34.3929Z" fill="white"/>
<defs>
<linearGradient id="paint0_linear_1992_27177" x1="1552.29" y1="7.67139" x2="1552.29" y2="3100.64" gradientUnits="userSpaceOnUse">
<stop stop-color="#17C9FB"/>
<stop offset="1" stop-color="#1A74E8"/>
</linearGradient>
<clipPath id="clip0_1992_27177">
<rect width="30.9297" height="30.9297" fill="white" transform="translate(5.80908 7.67139)"/>
</clipPath>
</defs>
</svg>
