<svg width="44" height="41" viewBox="0 0 44 41" fill="none" xmlns="http://www.w3.org/2000/svg">
<path d="M0.992188 8.83203C0.992188 4.48279 4.51795 0.957031 8.86719 0.957031H35.8672C40.2164 0.957031 43.7422 4.48279 43.7422 8.83203V32.832C43.7422 37.1813 40.2164 40.707 35.8672 40.707H8.86719C4.51795 40.707 0.992188 37.1813 0.992188 32.832V8.83203Z" fill="#F4F6F9"/>
<path d="M0.992188 8.83203C0.992188 4.48279 4.51795 0.957031 8.86719 0.957031H35.8672C40.2164 0.957031 43.7422 4.48279 43.7422 8.83203V32.832C43.7422 37.1813 40.2164 40.707 35.8672 40.707H8.86719C4.51795 40.707 0.992188 37.1813 0.992188 32.832V8.83203Z" stroke="#B3B3B3" stroke-width="0.25"/>
<path d="M18.3673 28.832H26.3673M19.7006 32.832H25.0339M18.3673 24.832C18.3686 22.1654 17.7019 21.4987 16.3673 20.1654C15.0326 18.832 14.4006 17.4814 14.3673 15.4987C14.3046 11.432 17.0339 8.83203 22.3673 8.83203C27.7019 8.83203 30.4326 11.432 30.3673 15.4987C30.3366 17.4814 29.7006 18.832 28.3673 20.1654C27.0353 21.4987 26.3686 22.1654 26.3673 24.832" stroke="#D99E20" stroke-width="2" stroke-linecap="round" stroke-linejoin="round"/>
</svg>
