<svg width="113" height="47" viewBox="0 0 113 47" fill="none" xmlns="http://www.w3.org/2000/svg">
<path d="M0.745605 23.5C0.745605 10.5213 11.2669 0 24.2456 0H89.2456C102.224 0 112.746 10.5213 112.746 23.5C112.746 36.4787 102.224 47 89.2456 47H24.2456C11.2669 47 0.745605 36.4787 0.745605 23.5Z" fill="white"/>
<path d="M70.7456 23.5C70.7456 14.6634 77.909 7.5 86.7456 7.5C95.5822 7.5 102.746 14.6634 102.746 23.5C102.746 32.3366 95.5822 39.5 86.7456 39.5C77.909 39.5 70.7456 32.3366 70.7456 23.5Z" fill="url(#paint0_linear_1992_26494)"/>
<path fill-rule="evenodd" clip-rule="evenodd" d="M87.5034 35.4485L87.4893 35.4511L87.3986 35.4958L87.3731 35.5009L87.3552 35.4958L87.2644 35.4511C87.2508 35.4468 87.2406 35.4489 87.2338 35.4575L87.2287 35.4702L87.2069 36.0171L87.2133 36.0427L87.2261 36.0593L87.359 36.1538L87.3782 36.159L87.3935 36.1538L87.5264 36.0593L87.5417 36.0388L87.5468 36.0171L87.5251 35.4715C87.5217 35.4579 87.5145 35.4502 87.5034 35.4485ZM87.842 35.3041L87.8254 35.3067L87.589 35.4255L87.5762 35.4383L87.5724 35.4523L87.5954 36.0018L87.6018 36.0171L87.612 36.0261L87.8688 36.1449C87.885 36.1492 87.8974 36.1458 87.9059 36.1347L87.911 36.1168L87.8676 35.3322C87.8633 35.3169 87.8548 35.3075 87.842 35.3041ZM86.9284 35.3067C86.9228 35.3033 86.916 35.3022 86.9096 35.3036C86.9032 35.305 86.8975 35.3089 86.8939 35.3143L86.8862 35.3322L86.8428 36.1168C86.8436 36.1321 86.8509 36.1423 86.8645 36.1475L86.8837 36.1449L87.1405 36.0261L87.1533 36.0158L87.1584 36.0018L87.1801 35.4523L87.1763 35.437L87.1635 35.4242L86.9284 35.3067Z" fill="white"/>
<path fill-rule="evenodd" clip-rule="evenodd" d="M86.7456 30.3911C87.0273 30.3911 87.2991 30.4945 87.5096 30.6817C87.7201 30.8689 87.8546 31.1268 87.8876 31.4065L87.8956 31.5411V32.6911C87.8953 32.9842 87.783 33.2661 87.5818 33.4792C87.3806 33.6924 87.1056 33.8206 86.813 33.8378C86.5204 33.855 86.2323 33.7598 86.0075 33.5717C85.7827 33.3835 85.6383 33.1167 85.6037 32.8256L85.5956 32.6911V31.5411C85.5956 31.2361 85.7168 30.9436 85.9324 30.7279C86.1481 30.5122 86.4406 30.3911 86.7456 30.3911ZM81.0531 28.0336C81.2687 28.2492 81.3898 28.5417 81.3898 28.8466C81.3898 29.1516 81.2687 29.444 81.0531 29.6597L80.2401 30.4727C80.134 30.5826 80.0071 30.6702 79.8668 30.7304C79.7265 30.7907 79.5756 30.8224 79.4229 30.8238C79.2702 30.8251 79.1187 30.796 78.9774 30.7382C78.8361 30.6803 78.7077 30.5949 78.5997 30.487C78.4917 30.379 78.4063 30.2506 78.3485 30.1093C78.2907 29.9679 78.2616 29.8165 78.2629 29.6638C78.2642 29.5111 78.296 29.3602 78.3562 29.2199C78.4165 29.0796 78.5041 28.9527 78.614 28.8466L79.427 28.0336C79.6427 27.818 79.9351 27.6969 80.2401 27.6969C80.545 27.6969 80.8374 27.818 81.0531 28.0336ZM94.0642 28.0336L94.8773 28.8466C95.0867 29.0635 95.2027 29.354 95.2 29.6555C95.1974 29.9571 95.0765 30.2455 94.8632 30.4587C94.65 30.6719 94.3616 30.7929 94.0601 30.7955C93.7585 30.7981 93.468 30.6822 93.2512 30.4727L92.4381 29.6597C92.2286 29.4428 92.1127 29.1523 92.1153 28.8508C92.118 28.5492 92.2389 28.2608 92.4521 28.0476C92.6653 27.8344 92.9538 27.7134 93.2553 27.7108C93.5568 27.7082 93.8473 27.8241 94.0642 28.0336ZM87.4552 10.8411C88.0158 10.8409 88.5573 11.0456 88.9776 11.4167C89.398 11.7877 89.6684 12.2995 89.7379 12.8559L90.1749 16.3519C91.4947 17.1078 92.5278 18.2786 93.1135 19.6823C93.6992 21.086 93.8047 22.6438 93.4136 24.1137C93.0225 25.5835 92.1567 26.8829 90.9508 27.8098C89.7449 28.7368 88.2666 29.2393 86.7456 29.2393C85.2246 29.2393 83.7463 28.7368 82.5404 27.8098C81.3346 26.8829 80.4688 25.5835 80.0776 24.1137C79.6865 22.6438 79.792 21.086 80.3777 19.6823C80.9634 18.2786 81.9965 17.1078 83.3163 16.3519L83.7533 12.8559C83.8228 12.2995 84.0932 11.7877 84.5136 11.4167C84.9339 11.0456 85.4754 10.8409 86.0361 10.8411H87.4552ZM77.5456 21.1911C77.8506 21.1911 78.1431 21.3122 78.3588 21.5279C78.5744 21.7436 78.6956 22.0361 78.6956 22.3411C78.6956 22.6461 78.5744 22.9386 78.3588 23.1542C78.1431 23.3699 77.8506 23.4911 77.5456 23.4911H76.3956C76.0906 23.4911 75.7981 23.3699 75.5824 23.1542C75.3668 22.9386 75.2456 22.6461 75.2456 22.3411C75.2456 22.0361 75.3668 21.7436 75.5824 21.5279C75.7981 21.3122 76.0906 21.1911 76.3956 21.1911H77.5456ZM97.0956 21.1911C97.4006 21.1911 97.6931 21.3122 97.9088 21.5279C98.1244 21.7436 98.2456 22.0361 98.2456 22.3411C98.2456 22.6461 98.1244 22.9386 97.9088 23.1542C97.6931 23.3699 97.4006 23.4911 97.0956 23.4911H95.9456C95.6406 23.4911 95.3481 23.3699 95.1324 23.1542C94.9168 22.9386 94.7956 22.6461 94.7956 22.3411C94.7956 22.0361 94.9168 21.7436 95.1324 21.5279C95.3481 21.3122 95.6406 21.1911 95.9456 21.1911H97.0956ZM94.8773 14.2106C95.0928 14.4262 95.214 14.7187 95.214 15.0236C95.214 15.3286 95.0928 15.621 94.8773 15.8367L94.0642 16.6497C93.9581 16.7596 93.8312 16.8472 93.6909 16.9074C93.5506 16.9677 93.3997 16.9994 93.247 17.0008C93.0943 17.0021 92.9429 16.973 92.8016 16.9152C92.6602 16.8573 92.5318 16.7719 92.4239 16.664C92.3159 16.556 92.2305 16.4276 92.1727 16.2863C92.1148 16.1449 92.0857 15.9935 92.0871 15.8408C92.0884 15.6881 92.1201 15.5372 92.1804 15.3969C92.2407 15.2566 92.3283 15.1297 92.4381 15.0236L93.2512 14.2106C93.4668 13.995 93.7593 13.8739 94.0642 13.8739C94.3691 13.8739 94.6616 13.995 94.8773 14.2106ZM80.2401 14.2106L81.0531 15.0236C81.2574 15.2415 81.3689 15.5303 81.3641 15.8289C81.3592 16.1276 81.2384 16.4126 81.0271 16.6237C80.8159 16.8348 80.5307 16.9555 80.2321 16.9601C79.9335 16.9648 79.6447 16.853 79.427 16.6486L78.614 15.8355C78.4097 15.6176 78.2981 15.3288 78.303 15.0302C78.3078 14.7316 78.4287 14.4465 78.6399 14.2354C78.8512 14.0243 79.1363 13.9037 79.435 13.899C79.7336 13.8944 80.0223 14.0061 80.2401 14.2106ZM87.4552 13.1411H86.0361L85.7486 15.4411H87.7427L87.4552 13.1411Z" fill="white"/>
<defs>
<linearGradient id="paint0_linear_1992_26494" x1="86.7456" y1="7.5" x2="86.7456" y2="39.5" gradientUnits="userSpaceOnUse">
<stop stop-color="#DEC42F"/>
<stop offset="1" stop-color="#D97220"/>
</linearGradient>
</defs>
</svg>
