<svg width="33" height="33" viewBox="0 0 33 33" fill="none" xmlns="http://www.w3.org/2000/svg">
<path d="M0.745605 16.5C0.745605 7.66344 7.90905 0.5 16.7456 0.5C25.5822 0.5 32.7456 7.66344 32.7456 16.5C32.7456 25.3366 25.5822 32.5 16.7456 32.5C7.90905 32.5 0.745605 25.3366 0.745605 16.5Z" fill="url(#paint0_linear_3306_8461)"/>
<path fill-rule="evenodd" clip-rule="evenodd" d="M17.5034 28.4485L17.4893 28.4511L17.3986 28.4958L17.3731 28.5009L17.3552 28.4958L17.2644 28.4511C17.2508 28.4468 17.2406 28.4489 17.2338 28.4575L17.2287 28.4702L17.2069 29.0171L17.2133 29.0427L17.2261 29.0593L17.359 29.1538L17.3782 29.159L17.3935 29.1538L17.5264 29.0593L17.5417 29.0388L17.5468 29.0171L17.5251 28.4715C17.5217 28.4579 17.5145 28.4502 17.5034 28.4485ZM17.842 28.3041L17.8254 28.3067L17.589 28.4255L17.5762 28.4383L17.5724 28.4523L17.5954 29.0018L17.6018 29.0171L17.612 29.0261L17.8688 29.1449C17.885 29.1492 17.8974 29.1458 17.9059 29.1347L17.911 29.1168L17.8676 28.3322C17.8633 28.3169 17.8548 28.3075 17.842 28.3041ZM16.9284 28.3067C16.9228 28.3033 16.916 28.3022 16.9096 28.3036C16.9032 28.305 16.8975 28.3089 16.8939 28.3143L16.8862 28.3322L16.8428 29.1168C16.8436 29.1321 16.8509 29.1423 16.8645 29.1475L16.8837 29.1449L17.1405 29.0261L17.1533 29.0158L17.1584 29.0018L17.1801 28.4523L17.1763 28.437L17.1635 28.4242L16.9284 28.3067Z" fill="#1E1E1E"/>
<path fill-rule="evenodd" clip-rule="evenodd" d="M16.7456 23.3911C17.0273 23.3911 17.2991 23.4945 17.5096 23.6817C17.7201 23.8689 17.8546 24.1268 17.8876 24.4065L17.8956 24.5411V25.6911C17.8953 25.9842 17.783 26.2661 17.5818 26.4792C17.3806 26.6924 17.1056 26.8206 16.813 26.8378C16.5204 26.855 16.2323 26.7598 16.0075 26.5717C15.7827 26.3835 15.6383 26.1167 15.6037 25.8256L15.5956 25.6911V24.5411C15.5956 24.2361 15.7168 23.9436 15.9324 23.7279C16.1481 23.5122 16.4406 23.3911 16.7456 23.3911ZM11.0531 21.0336C11.2687 21.2492 11.3898 21.5417 11.3898 21.8466C11.3898 22.1516 11.2687 22.444 11.0531 22.6597L10.2401 23.4727C10.134 23.5826 10.0071 23.6702 9.86677 23.7304C9.72647 23.7907 9.57556 23.8224 9.42287 23.8238C9.27017 23.8251 9.11874 23.796 8.97741 23.7382C8.83608 23.6803 8.70768 23.5949 8.5997 23.487C8.49172 23.379 8.40633 23.2506 8.34851 23.1093C8.29069 22.9679 8.26159 22.8165 8.26292 22.6638C8.26424 22.5111 8.29597 22.3602 8.35624 22.2199C8.41651 22.0796 8.50412 21.9527 8.61396 21.8466L9.42701 21.0336C9.64266 20.818 9.93512 20.6969 10.2401 20.6969C10.545 20.6969 10.8374 20.818 11.0531 21.0336ZM24.0642 21.0336L24.8773 21.8466C25.0867 22.0635 25.2027 22.354 25.2 22.6555C25.1974 22.9571 25.0765 23.2455 24.8632 23.4587C24.65 23.6719 24.3616 23.7929 24.0601 23.7955C23.7585 23.7981 23.468 23.6822 23.2512 23.4727L22.4381 22.6597C22.2286 22.4428 22.1127 22.1523 22.1153 21.8508C22.118 21.5492 22.2389 21.2608 22.4521 21.0476C22.6653 20.8344 22.9538 20.7134 23.2553 20.7108C23.5568 20.7082 23.8473 20.8241 24.0642 21.0336ZM17.4552 3.84106C18.0158 3.84094 18.5573 4.04564 18.9776 4.41667C19.398 4.78769 19.6684 5.2995 19.7379 5.85586L20.1749 9.35186C21.4947 10.1078 22.5278 11.2786 23.1135 12.6823C23.6992 14.086 23.8047 15.6438 23.4136 17.1137C23.0225 18.5835 22.1567 19.8829 20.9508 20.8098C19.7449 21.7368 18.2666 22.2393 16.7456 22.2393C15.2246 22.2393 13.7463 21.7368 12.5404 20.8098C11.3346 19.8829 10.4688 18.5835 10.0776 17.1137C9.68652 15.6438 9.79202 14.086 10.3777 12.6823C10.9634 11.2786 11.9965 10.1078 13.3163 9.35186L13.7533 5.85586C13.8228 5.2995 14.0932 4.78769 14.5136 4.41667C14.9339 4.04564 15.4754 3.84094 16.0361 3.84106H17.4552ZM7.54561 14.1911C7.8506 14.1911 8.14311 14.3122 8.35878 14.5279C8.57444 14.7436 8.69561 15.0361 8.69561 15.3411C8.69561 15.6461 8.57444 15.9386 8.35878 16.1542C8.14311 16.3699 7.8506 16.4911 7.54561 16.4911H6.39561C6.09061 16.4911 5.7981 16.3699 5.58243 16.1542C5.36677 15.9386 5.24561 15.6461 5.24561 15.3411C5.24561 15.0361 5.36677 14.7436 5.58243 14.5279C5.7981 14.3122 6.09061 14.1911 6.39561 14.1911H7.54561ZM27.0956 14.1911C27.4006 14.1911 27.6931 14.3122 27.9088 14.5279C28.1244 14.7436 28.2456 15.0361 28.2456 15.3411C28.2456 15.6461 28.1244 15.9386 27.9088 16.1542C27.6931 16.3699 27.4006 16.4911 27.0956 16.4911H25.9456C25.6406 16.4911 25.3481 16.3699 25.1324 16.1542C24.9168 15.9386 24.7956 15.6461 24.7956 15.3411C24.7956 15.0361 24.9168 14.7436 25.1324 14.5279C25.3481 14.3122 25.6406 14.1911 25.9456 14.1911H27.0956ZM24.8773 7.21056C25.0928 7.42622 25.214 7.71868 25.214 8.02361C25.214 8.32855 25.0928 8.62101 24.8773 8.83666L24.0642 9.64971C23.9581 9.75955 23.8312 9.84716 23.6909 9.90743C23.5506 9.9677 23.3997 9.99943 23.247 10.0008C23.0943 10.0021 22.9429 9.97298 22.8016 9.91516C22.6602 9.85734 22.5318 9.77195 22.4239 9.66397C22.3159 9.55599 22.2305 9.42759 22.1727 9.28626C22.1148 9.14493 22.0857 8.9935 22.0871 8.8408C22.0884 8.68811 22.1201 8.5372 22.1804 8.3969C22.2407 8.2566 22.3283 8.1297 22.4381 8.02361L23.2512 7.21056C23.4668 6.99497 23.7593 6.87386 24.0642 6.87386C24.3691 6.87386 24.6616 6.99497 24.8773 7.21056ZM10.2401 7.21056L11.0531 8.02361C11.2574 8.24148 11.3689 8.53029 11.3641 8.82893C11.3592 9.12756 11.2384 9.41259 11.0271 9.62371C10.8159 9.83483 10.5307 9.95548 10.2321 9.96012C9.93346 9.96475 9.64473 9.85302 9.42701 9.64856L8.61396 8.83551C8.40965 8.61765 8.29813 8.32884 8.30297 8.0302C8.30782 7.73157 8.42867 7.44654 8.63994 7.23542C8.85121 7.0243 9.13633 6.90365 9.43497 6.89901C9.7336 6.89438 10.0223 7.00611 10.2401 7.21056ZM17.4552 6.14106H16.0361L15.7486 8.44106H17.7427L17.4552 6.14106Z" fill="#1E1E1E"/>
<defs>
<linearGradient id="paint0_linear_3306_8461" x1="16.7456" y1="0.5" x2="16.7456" y2="32.5" gradientUnits="userSpaceOnUse">
<stop stop-color="#DEC42F"/>
<stop offset="1" stop-color="#D97220"/>
</linearGradient>
</defs>
</svg>
