<svg width="112" height="47" viewBox="0 0 112 47" fill="none" xmlns="http://www.w3.org/2000/svg">
<path d="M0 23.5C0 10.5213 10.5213 0 23.5 0H88.5C101.479 0 112 10.5213 112 23.5C112 36.4787 101.479 47 88.5 47H23.5C10.5213 47 0 36.4787 0 23.5Z" fill="#1E1E1E"/>
<path d="M10 23.5C10 14.6634 17.1634 7.5 26 7.5C34.8366 7.5 42 14.6634 42 23.5C42 32.3366 34.8366 39.5 26 39.5C17.1634 39.5 10 32.3366 10 23.5Z" fill="url(#paint0_linear_1983_9443)"/>
<path d="M29.5696 14.844L28.1416 15.625L29.5696 16.406L30.3506 17.834L31.1316 16.406L32.5596 15.625L31.1316 14.844L30.3516 13.416L29.5696 14.844ZM15.7256 23.5C15.7256 17.977 20.2026 13.5 25.7256 13.5H27.4596L26.5916 15C26.0126 16 25.7256 17.189 25.7256 18.5C25.7254 19.5336 25.9542 20.5545 26.3954 21.4892C26.8366 22.4239 27.4794 23.2493 28.2775 23.9061C29.0756 24.5629 30.0093 25.0348 31.0114 25.2879C32.0136 25.541 33.0593 25.5691 34.0736 25.37L35.7556 25.043L35.2126 26.669C34.5478 28.6587 33.274 30.389 31.5717 31.6149C29.8693 32.8408 27.8244 33.5003 25.7266 33.5C20.2036 33.5 15.7256 29.023 15.7256 23.5ZM34.2266 17.916L35.1406 19.586L36.8096 20.5L35.1396 21.414L34.2256 23.084L33.3126 21.414L31.6426 20.5L33.3126 19.586L34.2266 17.916Z" fill="#1E1E1E"/>
<defs>
<linearGradient id="paint0_linear_1983_9443" x1="26" y1="7.5" x2="26" y2="39.5" gradientUnits="userSpaceOnUse">
<stop stop-color="#DEC42F"/>
<stop offset="1" stop-color="#D97220"/>
</linearGradient>
</defs>
</svg>
