<svg width="112" height="47" viewBox="0 0 112 47" fill="none" xmlns="http://www.w3.org/2000/svg">
<path d="M0 23.5C0 10.5213 10.5213 0 23.5 0H88.5C101.479 0 112 10.5213 112 23.5C112 36.4787 101.479 47 88.5 47H23.5C10.5213 47 0 36.4787 0 23.5Z" fill="white"/>
<path d="M70 23.5C70 14.6634 77.1634 7.5 86 7.5C94.8366 7.5 102 14.6634 102 23.5C102 32.3366 94.8366 39.5 86 39.5C77.1634 39.5 70 32.3366 70 23.5Z" fill="url(#paint0_linear_1983_9444)"/>
<path fill-rule="evenodd" clip-rule="evenodd" d="M86.7583 35.4485L86.7442 35.4511L86.6535 35.4958L86.6279 35.5009L86.61 35.4958L86.5193 35.4511C86.5057 35.4468 86.4955 35.4489 86.4887 35.4575L86.4835 35.4702L86.4618 36.0171L86.4682 36.0427L86.481 36.0593L86.6139 36.1538L86.633 36.159L86.6484 36.1538L86.7813 36.0593L86.7966 36.0388L86.8017 36.0171L86.78 35.4715C86.7766 35.4579 86.7693 35.4502 86.7583 35.4485ZM87.0969 35.3041L87.0803 35.3067L86.8439 35.4255L86.8311 35.4383L86.8273 35.4523L86.8503 36.0018L86.8567 36.0171L86.8669 36.0261L87.1237 36.1449C87.1399 36.1492 87.1522 36.1458 87.1608 36.1347L87.1659 36.1168L87.1224 35.3322C87.1182 35.3169 87.1097 35.3075 87.0969 35.3041ZM86.1833 35.3067C86.1776 35.3033 86.1709 35.3022 86.1645 35.3036C86.1581 35.305 86.1524 35.3089 86.1488 35.3143L86.1411 35.3322L86.0977 36.1168C86.0985 36.1321 86.1057 36.1423 86.1194 36.1475L86.1385 36.1449L86.3954 36.0261L86.4082 36.0158L86.4133 36.0018L86.435 35.4523L86.4312 35.437L86.4184 35.4242L86.1833 35.3067Z" fill="white"/>
<path fill-rule="evenodd" clip-rule="evenodd" d="M86 30.3911C86.2817 30.3911 86.5535 30.4945 86.764 30.6817C86.9745 30.8689 87.109 31.1268 87.1419 31.4065L87.15 31.5411V32.6911C87.1497 32.9842 87.0374 33.2661 86.8362 33.4792C86.635 33.6924 86.36 33.8206 86.0674 33.8378C85.7748 33.855 85.4867 33.7598 85.2619 33.5717C85.0371 33.3835 84.8927 33.1167 84.858 32.8256L84.85 32.6911V31.5411C84.85 31.2361 84.9712 30.9436 85.1868 30.7279C85.4025 30.5122 85.695 30.3911 86 30.3911ZM80.3075 28.0336C80.5231 28.2492 80.6442 28.5417 80.6442 28.8466C80.6442 29.1516 80.5231 29.444 80.3075 29.6597L79.4944 30.4727C79.3884 30.5826 79.2615 30.6702 79.1212 30.7304C78.9809 30.7907 78.83 30.8224 78.6773 30.8238C78.5246 30.8251 78.3731 30.796 78.2318 30.7382C78.0905 30.6803 77.9621 30.5949 77.8541 30.487C77.7461 30.379 77.6607 30.2506 77.6029 30.1093C77.5451 29.9679 77.516 29.8165 77.5173 29.6638C77.5186 29.5111 77.5504 29.3602 77.6106 29.2199C77.6709 29.0796 77.7585 28.9527 77.8683 28.8466L78.6814 28.0336C78.8971 27.818 79.1895 27.6969 79.4944 27.6969C79.7994 27.6969 80.0918 27.818 80.3075 28.0336ZM93.3186 28.0336L94.1316 28.8466C94.3411 29.0635 94.457 29.354 94.4544 29.6555C94.4518 29.9571 94.3309 30.2455 94.1176 30.4587C93.9044 30.6719 93.616 30.7929 93.3145 30.7955C93.0129 30.7981 92.7224 30.6822 92.5055 30.4727L91.6925 29.6597C91.483 29.4428 91.3671 29.1523 91.3697 28.8508C91.3723 28.5492 91.4933 28.2608 91.7065 28.0476C91.9197 27.8344 92.2082 27.7134 92.5097 27.7108C92.8112 27.7082 93.1017 27.8241 93.3186 28.0336ZM86.7095 10.8411C87.2702 10.8409 87.8117 11.0456 88.232 11.4167C88.6524 11.7877 88.9228 12.2995 88.9923 12.8559L89.4293 16.3519C90.7491 17.1078 91.7822 18.2786 92.3679 19.6823C92.9536 21.086 93.0591 22.6438 92.668 24.1137C92.2769 25.5835 91.4111 26.8829 90.2052 27.8098C88.9993 28.7368 87.521 29.2393 86 29.2393C84.479 29.2393 83.0007 28.7368 81.7948 27.8098C80.5889 26.8829 79.7231 25.5835 79.332 24.1137C78.9409 22.6438 79.0464 21.086 79.6321 19.6823C80.2178 18.2786 81.2509 17.1078 82.5707 16.3519L83.0077 12.8559C83.0772 12.2995 83.3476 11.7877 83.768 11.4167C84.1883 11.0456 84.7298 10.8409 85.2905 10.8411H86.7095ZM76.8 21.1911C77.105 21.1911 77.3975 21.3122 77.6132 21.5279C77.8288 21.7436 77.95 22.0361 77.95 22.3411C77.95 22.6461 77.8288 22.9386 77.6132 23.1542C77.3975 23.3699 77.105 23.4911 76.8 23.4911H75.65C75.345 23.4911 75.0525 23.3699 74.8368 23.1542C74.6212 22.9386 74.5 22.6461 74.5 22.3411C74.5 22.0361 74.6212 21.7436 74.8368 21.5279C75.0525 21.3122 75.345 21.1911 75.65 21.1911H76.8ZM96.35 21.1911C96.655 21.1911 96.9475 21.3122 97.1632 21.5279C97.3788 21.7436 97.5 22.0361 97.5 22.3411C97.5 22.6461 97.3788 22.9386 97.1632 23.1542C96.9475 23.3699 96.655 23.4911 96.35 23.4911H95.2C94.895 23.4911 94.6025 23.3699 94.3868 23.1542C94.1712 22.9386 94.05 22.6461 94.05 22.3411C94.05 22.0361 94.1712 21.7436 94.3868 21.5279C94.6025 21.3122 94.895 21.1911 95.2 21.1911H96.35ZM94.1316 14.2106C94.3472 14.4262 94.4684 14.7187 94.4684 15.0236C94.4684 15.3286 94.3472 15.621 94.1316 15.8367L93.3186 16.6497C93.2125 16.7596 93.0856 16.8472 92.9453 16.9074C92.805 16.9677 92.6541 16.9994 92.5014 17.0008C92.3487 17.0021 92.1973 16.973 92.056 16.9152C91.9146 16.8573 91.7862 16.7719 91.6782 16.664C91.5703 16.556 91.4849 16.4276 91.4271 16.2863C91.3692 16.1449 91.3401 15.9935 91.3415 15.8408C91.3428 15.6881 91.3745 15.5372 91.4348 15.3969C91.4951 15.2566 91.5827 15.1297 91.6925 15.0236L92.5055 14.2106C92.7212 13.995 93.0137 13.8739 93.3186 13.8739C93.6235 13.8739 93.916 13.995 94.1316 14.2106ZM79.4944 14.2106L80.3075 15.0236C80.5118 15.2415 80.6233 15.5303 80.6185 15.8289C80.6136 16.1276 80.4928 16.4126 80.2815 16.6237C80.0702 16.8348 79.7851 16.9555 79.4865 16.9601C79.1879 16.9648 78.8991 16.853 78.6814 16.6486L77.8683 15.8355C77.664 15.6176 77.5525 15.3288 77.5574 15.0302C77.5622 14.7316 77.6831 14.4465 77.8943 14.2354C78.1056 14.0243 78.3907 13.9037 78.6894 13.899C78.988 13.8944 79.2767 14.0061 79.4944 14.2106ZM86.7095 13.1411H85.2905L85.003 15.4411H86.997L86.7095 13.1411Z" fill="white"/>
<defs>
<linearGradient id="paint0_linear_1983_9444" x1="86" y1="7.5" x2="86" y2="39.5" gradientUnits="userSpaceOnUse">
<stop stop-color="#DEC42F"/>
<stop offset="1" stop-color="#D97220"/>
</linearGradient>
</defs>
</svg>
